<svg width="120" height="48" fill="none" xmlns="http://www.w3.org/2000/svg"><path d="M100.992 29.365c-.038-.228-.038-.426 1.086-.78 1.12-.35 3.845-1.283 5.5-2.207 1.654-.932 1.93-1.062 2.319-.8.389.256.276.89.276 1.336v4.53c.606-1.004 2.595-4.344 4.174-5.327 1.241-.776 1.68-.84 2.449-.856.924-.017 3.105.556 3.201 2.88.075 1.818-1.254 2.548-2.098 2.434-.677-.097-1.161-.725-1.563-1.358-.405-.641-1.049-1.02-1.692-.801-.644.223-4.25 2.585-4.455 5.943-.146 2.471 0 10.177 0 10.177 0 1.169.443 1.62.962 1.932.514.316 2.407.333 2.937.41.539.075.518.202.518.37 0 .165 0 .245-.476.245h-12.678c-.406 0-.569-.08-.569-.32 0-.334.531-.275.936-.334.406-.054 2.549.123 3.164-.966.451-.712.397-1.86.397-1.86l-.063-13.535c0-1.092-.322-1.253-.618-1.425-.301-.173-.799-.266-1.847.092-.991.33-1.672.637-1.86.22zm-44.341.004c-.171-.333.147-.548 1.087-.797 1.049-.283 3.347-.987 5.169-2.029 1.822-1.038 2.135-1.147 2.52-1.02.388.13.35.817.35 1.374V44.41c0 .983.13 1.392.569 1.8.443.41 1.546.65 2.98.65.647 0 .848.076.848.355 0 .278-.2.278-.46.278H57.132c-.389 0-.48-.169-.48-.333 0-.207.17-.337.756-.337.493 0 2.77.172 3.288-1.021.2-.456.297-1.093.297-1.687V30.22c0-1.055-.81-1.523-1.747-1.295-1.095.253-2.369.877-2.595.443zm6.415-12.114c1.709 0 3.096-1.4 3.096-3.121 0-1.725-1.387-3.121-3.096-3.121-1.705 0-3.088 1.396-3.088 3.121 0 1.72 1.383 3.121 3.088 3.121zm15.123 19.862c.622 5.682 3.974 10.102 8.127 9.36 4.162-.743 6.248-4.754 5.746-11.178-.514-6.533-3.715-9.794-8.023-9.401-4.455.409-6.477 5.534-5.85 11.22zm4.12-12.219c5.361-1.012 12.987.181 14.722 8.65 1.73 8.47-4.046 12.98-9.056 14.08-4.897 1.071-13.213.308-14.717-8.803-1.354-8.178 4.525-13.075 9.05-13.927zM18.834 46.122h3.109c11.566 0 14.671-1.084 18.741-6.542 4.07-5.457 4.555-13.294 4.555-15.943 0-2.649-.698-9.296-4.768-14.919-4.074-5.622-10.873-7.081-16.82-7.081h-4.843c-1.149 0-1.207.514-1.207 1.324v42.132c0 .92.322 1.03 1.233 1.03zM0 47.11c0-.426.547-.497 1.057-.514 5.888-.169 6.987-.376 7.66-1.08.368-.388.907-.705.907-3.459V4.163C9.624.759 5.528 1.299 2.637 1 1.62.898 1.537.76 1.537.46c0-.296.193-.439.724-.46h23.723C52.066 0 53.4 19.246 53.4 24.38c0 11.029-7.225 23.16-22.327 23.16H.761c-.372 0-.761-.051-.761-.43z" fill="#211E1E"/></svg>