<svg width="148" height="32" fill="none" xmlns="http://www.w3.org/2000/svg"><path d="M133.461 9.352l-.275.092c-1.07-2.323-2.6-4.173-4.589-5.548-1.957-1.375-4.419-2.063-7.386-2.063-1.652 0-3.228.352-4.727 1.055a11.743 11.743 0 00-3.946 2.888c-1.102 1.222-1.989 2.705-2.661 4.447-.673 1.742-1.01 3.667-1.01 5.776s.337 4.034 1.01 5.776 1.56 3.24 2.661 4.494a12.066 12.066 0 003.945 2.842 11.43 11.43 0 004.728 1.009c2.936 0 5.322-.459 7.157-1.376 1.866-.948 3.441-2.384 4.727-4.31l.275.092-.092 2.934a12.944 12.944 0 01-2.432 1.971 17.858 17.858 0 01-2.982 1.423c-1.04.365-2.126.64-3.257.824a18.26 18.26 0 01-3.396.32 19.93 19.93 0 01-6.745-1.144c-2.142-.765-4.023-1.835-5.645-3.21a15.624 15.624 0 01-3.854-5.043c-.948-1.986-1.422-4.187-1.422-6.602 0-2.414.474-4.6 1.423-6.557a15.468 15.468 0 013.853-5.087c1.622-1.406 3.503-2.476 5.645-3.21A19.93 19.93 0 01121.21 0c1.132 0 2.264.091 3.397.274 1.131.184 2.217.474 3.257.871a14.13 14.13 0 012.982 1.422c.918.55 1.728 1.192 2.432 1.925l.183 4.86zM32.349 18.11a4.564 4.564 0 00-.963.595c-.306.244-.458.58-.458 1.009v5.64a15.085 15.085 0 01-5.646 4.905C22.988 31.42 20.45 32 17.666 32c-2.356 0-4.604-.382-6.746-1.146-2.14-.764-4.022-1.834-5.643-3.21a15.627 15.627 0 01-3.855-5.042C.474 20.615 0 18.414 0 16c0-2.414.475-4.599 1.424-6.555a15.468 15.468 0 013.853-5.09C6.898 2.95 8.779 1.88 10.92 1.147A19.923 19.923 0 0117.666 0c1.132 0 2.263.092 3.395.275 1.132.183 2.218.474 3.257.871 1.071.367 2.066.84 2.983 1.421a11.63 11.63 0 012.432 1.925l.185 4.86-.276.092c-1.07-2.323-2.6-4.172-4.588-5.547-1.958-1.376-4.421-2.064-7.388-2.064a11 11 0 00-4.726 1.055 11.763 11.763 0 00-3.945 2.888c-1.102 1.223-1.99 2.705-2.663 4.447-.673 1.743-1.01 3.668-1.01 5.776 0 2.078.322 3.988.966 5.73.672 1.743 1.559 3.241 2.66 4.494a12.672 12.672 0 003.946 2.888 11.535 11.535 0 004.772 1.009c3.182 0 5.904-.611 8.167-1.834v-8.573a1.18 1.18 0 00-.504-1.009 5.254 5.254 0 00-.917-.596l.041-.23c.153.029.428.06.826.092.398.028.811.059 1.24.092h3.945c.368-.028.72-.059 1.056-.092a9.33 9.33 0 00.78-.091l.049.23zM65.584.962a5.158 5.158 0 00-.917.596c-.306.245-.475.703-.505 1.376-.028.733-.059 1.665-.092 2.796 0 1.1-.014 2.354-.041 3.76 0 1.406-.014 2.934-.042 4.585v5.134c-.028 1.986-.273 3.683-.735 5.089-.458 1.406-1.07 2.583-1.835 3.53-.734.947-1.56 1.696-2.478 2.246-.887.55-1.774.963-2.66 1.238-.857.305-1.668.489-2.433.55-.765.092-1.361.138-1.79.138-1.744 0-3.426-.229-5.048-.687-1.62-.428-3.043-1.131-4.267-2.11-1.223-.978-2.202-2.247-2.936-3.805-.734-1.558-1.101-3.454-1.101-5.685V9.764c0-1.466-.014-2.78-.042-3.941a78.85 78.85 0 00-.043-2.89c-.027-.672-.195-1.13-.504-1.373a5.212 5.212 0 00-.917-.598l.041-.23c.153.029.398.06.736.092.367.029.734.06 1.1.092.398 0 .78.014 1.146.042h1.653c.368-.028.75-.042 1.147-.042.398-.028.766-.059 1.102-.092a6.62 6.62 0 00.78-.091l.041.229a4.566 4.566 0 00-.964.596c-.275.245-.427.703-.458 1.376a285.28 285.28 0 00-.092 2.888v13.891c0 3.331.78 5.792 2.34 7.381 1.56 1.59 3.87 2.384 6.929 2.384.887 0 1.896-.107 3.028-.321a8.077 8.077 0 003.167-1.467c1.009-.734 1.85-1.773 2.523-3.117.704-1.345 1.056-3.133 1.056-5.364 0-2.415-.014-4.478-.042-6.19 0-1.741-.014-3.224-.043-4.447 0-1.253-.014-2.323-.042-3.208a167.25 167.25 0 00-.091-2.43c-.028-.673-.196-1.131-.505-1.376a5.249 5.249 0 00-.917-.596l.041-.23c.337.062.72.123 1.148.185.428.028.826.041 1.194.041.335 0 .717-.013 1.146-.04a26.06 26.06 0 001.193-.185l.029.229zm33.296 8.39l-.275.092c-1.072-2.323-2.601-4.173-4.59-5.548-1.957-1.375-4.42-2.063-7.387-2.063-1.651 0-3.226.352-4.725 1.055a11.738 11.738 0 00-3.947 2.888c-1.101 1.222-1.988 2.705-2.66 4.447-.674 1.742-1.01 3.667-1.01 5.776s.336 4.034 1.01 5.776c.672 1.742 1.559 3.24 2.66 4.494a12.058 12.058 0 003.945 2.842c1.5.672 3.076 1.009 4.727 1.009 2.937 0 5.323-.459 7.158-1.376 1.866-.948 3.442-2.384 4.727-4.31l.275.092-.092 2.934a12.947 12.947 0 01-2.432 1.971 17.84 17.84 0 01-2.982 1.423c-1.04.365-2.126.64-3.257.824-1.132.214-2.264.32-3.396.32-2.356 0-4.605-.38-6.746-1.144-2.14-.765-4.022-1.835-5.643-3.21a15.623 15.623 0 01-3.855-5.043c-.949-1.986-1.423-4.187-1.423-6.602 0-2.414.474-4.6 1.423-6.557a15.49 15.49 0 013.855-5.087c1.621-1.406 3.502-2.476 5.643-3.21A19.941 19.941 0 0186.63 0a21.3 21.3 0 013.395.274 16.53 16.53 0 013.257.871c1.071.367 2.066.841 2.983 1.422a11.63 11.63 0 012.432 1.925l.184 4.86zm48.41 21.868a10.235 10.235 0 00-.779-.09c-.336 0-.703-.015-1.102-.043-.398 0-.78-.013-1.147-.04h-2.752c-.367.027-.735.057-1.102.09a8.836 8.836 0 00-.779.091l-.043-.183c.306-.152.612-.351.917-.596.307-.245.475-.703.506-1.376.028-.733.042-1.497.042-2.292a77.67 77.67 0 00.042-2.705V7.892a73.69 73.69 0 00-.042-2.66c0-.794-.014-1.558-.042-2.291-.029-.673-.197-1.131-.505-1.375a4.137 4.137 0 00-.917-.643l.042-.183c.183.061.443.107.779.137.367 0 .734.015 1.101.043.398.028.781.042 1.147.042h1.606c.367-.028.749-.042 1.146-.042a39.89 39.89 0 001.103-.092 6.61 6.61 0 00.779-.092l.042.185a3.814 3.814 0 00-.964.641c-.275.244-.427.702-.458 1.374-.028.735-.059 1.5-.092 2.294v21.547c.029.794.059 1.558.092 2.292.027.672.18 1.13.458 1.375.306.244.627.443.964.597l-.042.178z" fill="#000"/></svg>