<svg width="102" height="50" fill="none" xmlns="http://www.w3.org/2000/svg"><path fill-rule="evenodd" clip-rule="evenodd" d="M99.2 10.695a1.94 1.94 0 101.371 3.31 1.938 1.938 0 00.564-1.375 1.934 1.934 0 00-1.935-1.935zm0 3.646a1.706 1.706 0 111.202-2.914 1.7 1.7 0 01.498 1.203 1.704 1.704 0 01-1.7 1.711z" fill="#000"/><path fill-rule="evenodd" clip-rule="evenodd" d="M100.196 12.122c0-.182-.081-.375-.243-.467-.163-.096-.346-.106-.53-.106h-.944v2.168h.264v-1h.488l.619 1h.316l-.656-1c.386-.01.686-.168.686-.595zm-1.046.386h-.407v-.766h.62c.269 0 .564.04.564.375 0 .442-.473.391-.777.391zm-64.9 32.118l-12.64-6.173c-.278-.144-.422-.512-.416-.752l.033-3.408c.005-.24.053-.486.368-.712 1.351-.862 5.537-3.179 9.86-9.489 5.758-8.404 0-15.465-9-13.543-7.992 1.707-16.13 6.035-19.66 8.388C-.35 21.034.088 23.568 0 25.84c.175.96.524.874 1.31-.088 5.855-5.417 14.767-9.523 16.427-10.222 1.66-.7 5.593-3.058 10.224-2.01 4.448 1.007 3.367 7.055 2.01 9.611-1.486 2.796-5.724 6.859-7.646 7.864-.73.382-1.005 0-1.005-.612l.306-13.15c0-.874-.393-1.267-1.267-.961l-1.398.699c-.96.568-.917.786-1.005 1.485l-.212 15.16c-.007.327-.159.59-.34.667l-4.56 2.565c-1.047.525-.786 1.311 0 1.573l3.67 1.748c.875.349 1.137.61 1.137 1.485l-.131 7.34c3.277-.656 3.494-2.229 3.582-3.277v-2.229c.087-.524.393-.699.83-.611l10.66 5.155c.96.437 1.485.261 2.184-.96.698-1.223.786-1.835-.525-2.446zm18.63-18.519c-1.481.855-2.167 2.456-1.583 3.466.583 1.011 2.345 1.18 3.827.325 1.482-.856 2.124-2.413 1.54-3.423-.583-1.01-2.302-1.224-3.784-.368z" fill="#000"/><path fill-rule="evenodd" clip-rule="evenodd" d="M47.414 27.195c-.403.49-1.18 1.988-1.616 2.905-.437.917-1.355 2.992-2.272 2.992-.97 0-1.092-2.402-1.092-3.276 0-.874-.525-1.005-.787-.961a1.575 1.575 0 00-1.223 1.223c-.219.918-1.398 4.893-2.71 4.893-.829 0-1.44-2.402-1.484-3.145-.044-.742-.394-1.354-1.136-1.354-.525 0-1.18.262-1.442.568-.262.306-.306.786-1.704.48-1.267-.043-2.49.612-3.975 3.102-.894 1.5-1.621 4.293-.262 5.417 1.267 1.048 3.494-.83 4.15-1.617.655-.785 1.223-1.354 1.485-1.79.262-.437.525-.393.656.043.13.438.873 2.141 1.835 2.098.961-.044 2.184-.787 3.626-3.321.262-.524.655-.48.743-.044.087.438.655 1.88 1.616 1.88.918 0 1.938-1.458 2.447-2.316.35-.59.873-.306.873.262 0 .568-.262 13.98-.262 13.98 0 .611.24.786.677.786h1.9c.35 0 .656-.305.656-.786l.393-21.735c0-.525-.59-.896-1.092-.284zm-14.853 8.562c-.394.656-1.442 2.403-2.36 2.098-.48-.262.16-2.01.481-2.621.48-.918 1.89-2.379 2.534-2.01.612.349-.262 1.878-.655 2.533zm66.566-13.4c-.174.154-.459.416-1.092.131-1.093-.436-1.18-2.49-1.748-4.369-.51-1.687-1.74-1.581-2.184-.808l-1.332 2.141c-.241.437-.765 1.442-1.29 1.442-.611 0-.338-.874-.305-1.748.021-.59-.35-1.332-.961-1.332-.7 0-1.442 1.07-2.01 2.294-.396.855-1.42 4.128-2.709 4.128-.83 0-.917-2.403-.96-3.146-.044-.742-.307-1.66-1.049-1.66-.502 0-.83.262-1.092.568-.262.306-.305.568-1.223.437-1.267-.044-3.364 1.136-4.85 3.626-.894 1.499-1.97 4.642-.611 5.767 1.267 1.048 3.538-1.399 4.194-2.185.654-.786 1.223-1.354 1.485-1.79.262-.438.524-.394.655.043.13.437.874 2.14 1.835 2.097.962-.044 1.747-.262 3.19-2.796.261-.524.742-.59.83-.153.087.437.174 1.595 1.092 1.595 1.572 0 3.354-3.827 3.8-4.719.394-.786 1.027-.568 1.246.022.312.844.589 3.56 2.293 3.56 1.704 0 2.861-1.812 3.21-2.38.394-.568.19-1.293-.414-.764zM80.603 24.98c-.393.655-1.267 2.097-2.184 1.79-.48-.261.116-1.528.437-2.14.48-.917 1.889-2.4 2.534-2.031.611.35-.394 1.725-.787 2.38zm-8.44-2.29s-3.713-2.709-4.762-3.932c-.704-.821-.218-1.441.219-1.79 2.62-1.748 6.727-4.457 8.344-8.65C77.521 4.273 75.09.757 73.342.19c-2.395-.778-7.47.787-10.005 5.505-1.64 3.056-2.402 4.063-2.62 12.363a194.04 194.04 0 00-.088 5.33c0 1.967-.218 7.296-.437 8.3-.83 2.36 1.66.962 2.795.045 1.137-.918 1.049-2.294 1.049-2.884 0-.743.044-13.849.437-16.776.245-1.82.525-5.199 2.446-8.126C68.842 1.02 70.807 2.2 71.332 2.68c.524.48 1.267 1.704.873 4.194-.61 3.865-5.067 8.083-6.204 9.393-1.135 1.31-.873 2.447-.217 3.364.465.652 1.616 1.922 2.796 3.102 1.18 1.18 1.048 2.228.874 3.015-.613 2.358-6.99 8.737-6.99 8.737-1.356 1.442.042 3.8.523 4.587.482.786 1.092.525 1.485-.131 1.574-2.927 8.345-10.005 8.345-10.005 1.968-2.49 1.137-4.893-.654-6.247z" fill="#000"/></svg>