<svg width="143" height="71" fill="none" xmlns="http://www.w3.org/2000/svg"><path fill-rule="evenodd" clip-rule="evenodd" d="M139.835 15.473a2.715 2.715 0 101.92 4.633 2.7 2.7 0 00.789-1.924 2.708 2.708 0 00-2.709-2.709zm0 5.105a2.386 2.386 0 01-2.388-2.396 2.381 2.381 0 012.388-2.381 2.383 2.383 0 012.203 3.296 2.388 2.388 0 01-2.203 1.481z" fill="#000"/><path fill-rule="evenodd" clip-rule="evenodd" d="M141.231 17.471c0-.256-.114-.526-.342-.654-.228-.134-.483-.149-.741-.149h-1.321v3.036h.369v-1.401h.683l.866 1.4h.442l-.918-1.4c.542-.014.962-.235.962-.832zm-1.466.54h-.569V16.94h.868c.376 0 .789.056.789.526.001.618-.662.547-1.088.547zM48.907 62.977l-17.698-8.642c-.389-.202-.59-.716-.582-1.053l.047-4.77c.007-.337.073-.682.515-.998 1.892-1.207 7.75-4.45 13.804-13.284 8.061-11.766 0-21.651-12.6-18.96-11.19 2.39-22.582 8.449-27.523 11.743-4.404 2.936-3.793 6.483-3.914 9.664.244 1.345.734 1.223 1.835-.123 8.195-7.584 20.673-13.333 22.997-14.312 2.324-.978 7.83-4.28 14.313-2.813 6.227 1.41 4.714 9.877 2.813 13.456-2.08 3.914-8.013 9.602-10.704 11.009-1.022.534-1.406 0-1.406-.857l.428-18.41c0-1.223-.55-1.774-1.773-1.346l-1.958.98c-1.345.794-1.284 1.1-1.407 2.079l-.296 21.224c-.01.457-.223.825-.475.934l-6.385 3.59c-1.467.735-1.101 1.836 0 2.203l5.138 2.446c1.224.489 1.59.856 1.59 2.079l-.183 10.276c4.588-.917 4.893-3.12 5.015-4.588v-3.12c.122-.734.55-.978 1.162-.855l14.924 7.217c1.345.612 2.08.366 3.058-1.345.978-1.712 1.1-2.568-.735-3.424zm26.08-25.926c-2.073 1.197-3.033 3.438-2.216 4.853.816 1.415 3.283 1.652 5.358.454 2.076-1.198 2.973-3.378 2.156-4.792-.816-1.415-3.223-1.714-5.298-.515z" fill="#000"/><path fill-rule="evenodd" clip-rule="evenodd" d="M67.335 38.573c-.564.687-1.651 2.783-2.263 4.067-.611 1.284-1.896 4.19-3.18 4.19-1.358 0-1.53-3.364-1.53-4.588 0-1.223-.733-1.407-1.1-1.345-.367.061-1.407.427-1.713 1.712-.306 1.285-1.957 6.851-3.792 6.851-1.162 0-2.019-3.364-2.08-4.404-.06-1.039-.55-1.896-1.59-1.896-.734 0-1.652.367-2.019.796-.367.428-.427 1.1-2.385.672-1.774-.06-3.487.857-5.566 4.343-1.251 2.099-2.269 6.01-.367 7.584 1.774 1.468 4.893-1.162 5.811-2.264.917-1.1 1.713-1.895 2.08-2.506.366-.612.734-.551.917.06.183.613 1.223 2.997 2.57 2.937 1.345-.061 3.058-1.101 5.076-4.65.367-.733.917-.672 1.04-.06.123.612.917 2.63 2.263 2.63 1.284 0 2.713-2.04 3.425-3.241.489-.826 1.223-.428 1.223.367 0 .794-.367 19.572-.367 19.572 0 .855.336 1.1.948 1.1h2.66c.49 0 .918-.428.918-1.1l.55-30.43c0-.734-.825-1.253-1.529-.397zM46.54 50.56c-.55.918-2.018 3.364-3.302 2.937-.673-.367.224-2.814.672-3.67.673-1.284 2.646-3.33 3.548-2.814.856.49-.367 2.63-.918 3.547zm93.193-18.76c-.244.215-.642.582-1.529.184-1.529-.612-1.651-3.486-2.446-6.117-.715-2.363-2.436-2.214-3.058-1.131l-1.866 2.997c-.336.611-1.07 2.018-1.805 2.018-.856 0-.473-1.224-.427-2.447.03-.825-.49-1.864-1.346-1.864-.978 0-2.018 1.497-2.813 3.21-.555 1.199-1.988 5.78-3.793 5.78-1.162 0-1.284-3.363-1.345-4.403-.06-1.04-.428-2.324-1.467-2.324-.704 0-1.162.366-1.53.794-.366.428-.427.795-1.712.612-1.774-.062-4.709 1.59-6.789 5.076-1.252 2.099-2.759 6.5-.856 8.074 1.774 1.467 4.953-1.958 5.871-3.058.917-1.101 1.712-1.897 2.08-2.508.366-.612.733-.55.917.062.183.611 1.223 2.997 2.569 2.935 1.346-.06 2.446-.367 4.465-3.915.366-.733 1.039-.825 1.162-.213.122.611.245 2.233 1.529 2.233 2.201 0 4.696-5.358 5.321-6.607.551-1.1 1.437-.795 1.743.03.438 1.183.825 4.986 3.211 4.986 2.385 0 4.005-2.539 4.494-3.334.552-.794.265-1.809-.58-1.07zM113.8 35.47c-.55.918-1.774 2.936-3.058 2.508-.673-.367.163-2.14.612-2.997.673-1.285 2.644-3.36 3.548-2.844.855.49-.552 2.415-1.102 3.333zm-11.816-3.205s-5.198-3.793-6.667-5.505c-.986-1.15-.305-2.018.306-2.507 3.67-2.447 9.419-6.24 11.682-12.11 2.181-5.66-1.224-10.581-3.67-11.377-3.353-1.089-10.46 1.101-14.007 7.707-2.297 4.278-3.363 5.688-3.67 17.309-.058 2.2-.122 4.71-.122 7.462s-.306 10.214-.612 11.62c-1.162 3.303 2.325 1.346 3.914.062 1.59-1.285 1.468-3.211 1.468-4.037 0-1.04.062-19.389.612-23.487.343-2.549.735-7.278 3.424-11.376 2.692-4.098 5.444-2.446 6.179-1.774.733.673 1.774 2.386 1.222 5.872-.854 5.41-7.095 11.315-8.686 13.15-1.59 1.834-1.222 3.425-.304 4.71.652.913 2.263 2.69 3.914 4.342 1.652 1.651 1.468 3.12 1.224 4.22-.858 3.303-9.787 12.233-9.787 12.233-1.897 2.018.06 5.321.733 6.421.675 1.101 1.53.735 2.08-.183 2.202-4.097 11.682-14.006 11.682-14.006 2.756-3.487 1.592-6.85-.915-8.746z" fill="#000"/></svg>