<svg width="139" height="30" fill="none" xmlns="http://www.w3.org/2000/svg"><path d="M125.808 8.768l-.258.085c-1.004-2.177-2.438-3.911-4.303-5.2-1.835-1.29-4.143-1.934-6.924-1.934-1.549 0-3.026.33-4.432.988a11.008 11.008 0 00-3.699 2.708c-1.033 1.146-1.865 2.536-2.495 4.17-.631 1.632-.947 3.437-.947 5.414 0 1.977.316 3.782.947 5.415s1.463 3.038 2.495 4.213a11.31 11.31 0 003.698 2.664c1.406.631 2.884.946 4.433.946 2.752 0 4.989-.43 6.71-1.29 1.749-.888 3.226-2.235 4.431-4.04l.258.086-.086 2.75c-.66.688-1.42 1.304-2.28 1.849-.86.516-1.792.96-2.796 1.333-.975.343-1.993.6-3.054.773-1.061.2-2.123.3-3.183.3-2.209 0-4.317-.357-6.324-1.073-2.008-.717-3.771-1.72-5.291-3.009a14.634 14.634 0 01-3.614-4.728c-.889-1.862-1.333-3.925-1.333-6.189 0-2.263.445-4.312 1.334-6.147a14.477 14.477 0 013.613-4.77c1.52-1.318 3.283-2.32 5.291-3.009A18.684 18.684 0 01114.321 0c1.062 0 2.124.086 3.185.257a15.53 15.53 0 013.054.816c1.003.345 1.935.79 2.796 1.334.86.515 1.62 1.117 2.28 1.804l.172 4.557zm-94.794 8.209c-.315.143-.616.33-.902.558-.287.23-.43.544-.43.946v5.287a14.141 14.141 0 01-5.293 4.6C22.24 29.455 19.86 30 17.25 30c-2.208 0-4.316-.358-6.324-1.075-2.007-.716-3.77-1.72-5.29-3.009A14.651 14.651 0 012.02 21.19C1.132 19.326.688 17.264.688 15c0-2.263.444-4.311 1.334-6.146a14.501 14.501 0 013.612-4.77c1.52-1.319 3.284-2.321 5.291-3.008A18.678 18.678 0 0117.249 0c1.061 0 2.122.086 3.183.258 1.062.171 2.08.444 3.053.817 1.005.343 1.937.787 2.797 1.332a10.96 10.96 0 012.28 1.804l.173 4.557-.258.085c-1.003-2.177-2.437-3.91-4.302-5.2-1.835-1.29-4.144-1.934-6.926-1.934-1.548 0-3.025.33-4.43.988A11.027 11.027 0 009.12 5.415C8.087 6.56 7.255 7.95 6.624 9.585c-.631 1.633-.947 3.438-.947 5.414 0 1.949.302 3.74.905 5.372.63 1.634 1.462 3.039 2.494 4.213a11.878 11.878 0 003.7 2.707c1.405.631 2.896.946 4.473.946 2.983 0 5.535-.573 7.657-1.718V18.48c0-.4-.158-.716-.473-.946a4.919 4.919 0 00-.86-.56l.04-.214c.143.026.4.055.774.086.373.026.76.055 1.161.086h3.7c.344-.026.674-.055.99-.086.315-.026.558-.055.73-.086l.046.216zM62.173.902c-.287.143-.574.33-.86.56-.287.228-.445.658-.474 1.288-.026.688-.055 1.562-.086 2.622 0 1.032-.013 2.207-.038 3.526 0 1.317-.014 2.75-.04 4.297v4.814c-.026 1.862-.256 3.452-.689 4.77-.43 1.319-1.003 2.422-1.72 3.309-.688.889-1.463 1.591-2.323 2.106a10.76 10.76 0 01-2.495 1.16c-.803.287-1.563.46-2.28.517-.717.086-1.276.129-1.678.129-1.635 0-3.212-.215-4.732-.644-1.52-.402-2.854-1.06-4-1.978-1.147-.917-2.065-2.106-2.753-3.567-.689-1.461-1.033-3.238-1.033-5.33V9.154c0-1.375-.013-2.606-.04-3.695 0-1.118-.013-2.02-.039-2.709-.026-.63-.183-1.06-.473-1.288a4.887 4.887 0 00-.86-.56l.04-.215c.143.026.372.055.69.086.343.026.687.055 1.03.086.374 0 .732.013 1.075.04h1.55c.344-.027.703-.04 1.075-.04.373-.027.717-.055 1.033-.086.343-.026.587-.055.73-.086l.04.215c-.315.143-.617.33-.904.56-.258.228-.401.658-.43 1.288-.026.688-.055 1.59-.086 2.708V18.48c0 3.123.732 5.43 2.194 6.92 1.463 1.49 3.628 2.235 6.496 2.235.831 0 1.777-.1 2.838-.302a7.571 7.571 0 002.97-1.375c.945-.688 1.734-1.662 2.365-2.922.66-1.261.99-2.937.99-5.028 0-2.264-.013-4.198-.04-5.803 0-1.633-.013-3.023-.04-4.17a98.32 98.32 0 00-.039-3.008c-.026-.83-.054-1.59-.086-2.278-.026-.63-.183-1.06-.473-1.289a4.92 4.92 0 00-.86-.56l.04-.214c.315.057.674.115 1.075.173.402.026.775.038 1.12.038.314 0 .672-.012 1.074-.038.43-.057.803-.115 1.118-.173l.027.215zm31.214 7.866l-.258.085c-1.004-2.177-2.438-3.911-4.302-5.2-1.835-1.29-4.144-1.934-6.926-1.934-1.548 0-3.025.33-4.43.988a11.005 11.005 0 00-3.7 2.708c-1.032 1.146-1.864 2.536-2.494 4.17-.631 1.632-.947 3.437-.947 5.414 0 1.977.316 3.782.947 5.415.63 1.633 1.462 3.038 2.495 4.213a11.303 11.303 0 003.698 2.664 10.71 10.71 0 004.431.946c2.754 0 4.99-.43 6.711-1.29 1.75-.888 3.227-2.235 4.431-4.04l.258.086-.086 2.75c-.66.688-1.42 1.304-2.28 1.849-.86.516-1.791.96-2.796 1.333-.974.343-1.992.6-3.053.773-1.062.2-2.123.3-3.184.3a18.69 18.69 0 01-6.324-1.073c-2.007-.717-3.77-1.72-5.29-3.009a14.647 14.647 0 01-3.614-4.728c-.89-1.862-1.335-3.925-1.335-6.189 0-2.263.445-4.312 1.335-6.147a14.522 14.522 0 013.613-4.77c1.52-1.318 3.284-2.32 5.29-3.009A18.694 18.694 0 0181.903 0c1.061 0 2.122.086 3.183.257 1.061.172 2.08.444 3.053.816 1.005.345 1.937.79 2.797 1.334.86.515 1.62 1.117 2.28 1.804l.172 4.557zm45.386 20.5a9.67 9.67 0 00-.731-.085c-.315 0-.659-.013-1.032-.04-.373 0-.732-.012-1.076-.038h-2.58c-.344.026-.689.054-1.033.085a8.361 8.361 0 00-.731.086l-.039-.172c.286-.143.573-.33.859-.56.287-.228.445-.658.474-1.289.026-.688.04-1.404.04-2.149.026-.745.039-1.59.039-2.536V7.4c0-.947-.013-1.778-.039-2.495 0-.745-.014-1.46-.04-2.148-.026-.63-.184-1.06-.473-1.29a3.897 3.897 0 00-.859-.601l.038-.172c.172.057.416.1.731.129.344 0 .689.013 1.032.04.374.026.732.039 1.076.039h1.505c.344-.027.702-.04 1.075-.04.374-.026.718-.055 1.033-.086.344-.026.588-.055.731-.086l.039.173a3.558 3.558 0 00-.903.601c-.258.23-.401.659-.43 1.289-.026.688-.055 1.405-.086 2.15v20.2c.027.745.055 1.461.086 2.149.026.63.169 1.06.43 1.29.286.228.588.415.903.558l-.039.168z" fill="#000"/></svg>