<svg width="134" height="50" fill="none" xmlns="http://www.w3.org/2000/svg"><path fill-rule="evenodd" clip-rule="evenodd" d="M65.548 0c7.715-.008 13.776.356 20.342 1.473 7.169 1.22 13.855 2.865 19.238 5.95.398.228.702.377 1.218.708 2.099 1.348 4.711 3.507 5.214 6.404.406 2.342-.689 4.25-1.87 5.61-1.227 1.41-2.73 2.485-4.335 3.4-6.547 3.73-15.179 5.715-24.14 6.742-4.164.478-8.53.822-13.656.822-4.982 0-9.383-.201-13.627-.623-8.633-.859-17.675-2.669-24.48-6.12-1.694-.86-3.28-1.798-4.703-3.06-1.351-1.198-2.64-2.684-3.003-4.732-.61-3.439 1.813-5.94 3.825-7.48 2.156-1.65 4.93-3.027 7.593-4.022 5.535-2.07 12.229-3.444 18.87-4.25C56.458.284 60.385.006 65.547 0zm.198 3.088c-5.989 0-11.676 1.088-16.66 2.919-2.44.896-4.608 1.997-6.516 3.598-1.664 1.396-3.633 3.636-3.173 6.714.397 2.656 2.508 4.55 4.307 5.809 2.007 1.405 4.415 2.467 6.856 3.258 5.273 1.708 11.181 2.444 17.283 2.38 5.797-.061 11.894-1.066 16.687-2.947 2.364-.927 4.632-2.062 6.488-3.626 1.71-1.44 3.525-3.767 3.06-6.658-.416-2.59-2.391-4.485-4.306-5.809-2.106-1.456-4.339-2.414-6.856-3.258C79.06 4.176 74.68 3.41 70.478 3.202c-1.319-.066-3.053-.19-4.675-.114h-.057zM6.135 36.945c2.557-.005 4.832-.029 6.913.397.698.143 1.482.413 1.728.935.232.49.142 1.303.142 2.493v6.545c0 .419.053.947-.057 1.247-.34.928-2.195 1.148-3.145 1.246-2.557.265-5.6.247-8.216 0-1.025-.097-2.86-.317-3.258-1.19-.237-.52-.114-1.745-.114-2.521v-5.213c0-.92-.137-2.134.227-2.692.37-.565 1.582-.879 2.579-1.02a20.957 20.957 0 013.201-.227zm-.227 1.615c-.102.21-.056.804-.056 1.162v6.176c0 .732-.145 2 .085 2.408.237.422.893.417 1.558.425.527.007 1.33.039 1.587-.396.232-.394.085-1.57.085-2.352v-4.93c0-.53.132-2.028-.029-2.436-.205-.52-1.568-.486-2.04-.453-.338.023-1.014.038-1.19.396zm22.354-1.473h7.225c1.659 4.215 3.324 8.425 4.958 12.664H33.93c-.358-1.039-.685-2.11-1.048-3.145a52.949 52.949 0 00-3.854 0c-.348 1.002-.615 2.086-.906 3.145h-4.448c1.103-3.149 2.27-6.302 3.4-9.462.379-1.061.816-2.266 1.19-3.202zm1.049 8.046a36.03 36.03 0 013.173 0c-.565-1.664-1.108-3.349-1.728-4.958-.455 1.68-.988 3.282-1.445 4.958zm26.916-2.946c1.348-1.393 2.758-2.96 4.164-4.505.17-.187.473-.554.624-.595.337-.093.939 0 1.331 0 1.295 0 2.666.023 3.938-.028.055.152-.154.232-.226.311a313.583 313.583 0 01-4.562 4.93c1.5 2.477 3.104 5 4.534 7.452h-6.545c-1.156-1.772-2.136-3.72-3.258-5.525v5.525H50.05c-.02-4.09.038-8.5-.028-12.637 1.965-.066 4.202-.01 6.12-.028.155-.016.084.342.084.538v4.562zm19.52-5.1h6.149V48.05c2.04.02 4.155-.037 6.148.029v1.672H75.69c.065-3.884.01-8.481.028-12.608-.057-.026.013-.125.028-.057zm21.504 0h12.098v1.615h-5.893c-.066 1.237-.009 2.597-.028 3.882 1.511.018 3.098-.038 4.562.028.01.546-.021 1.069.028 1.473h-4.562v4.023c1.899.066 3.92.01 5.865.029v1.614H97.223V37.145c-.012-.055.02-.103.028-.057zm36.124-.028c.024-.006.027.01.029.028-1.671 2.646-3.548 5.33-5.299 7.99.019 1.521-.037 3.266.029 4.646-2.021.066-4.165.01-6.233.029-.002-1.109 0-2.279 0-3.485 0-.387.071-.826 0-1.162-.063-.295-.46-.697-.68-1.02a449.131 449.131 0 01-4.675-6.998h6.544c.966 1.518 1.842 3.126 2.749 4.703.95-1.543 1.832-3.154 2.776-4.703 1.578-.019 3.23.038 4.76-.028z" fill="#000"/></svg>