<svg width="100" height="40" fill="none" xmlns="http://www.w3.org/2000/svg"><path d="M83.878 24.47c-.031-.19-.031-.354.898-.65.925-.291 3.177-1.068 4.544-1.838 1.368-.777 1.596-.886 1.917-.668.321.215.228.742.228 1.114v3.775c.5-.836 2.145-3.62 3.45-4.439 1.026-.647 1.388-.7 2.024-.713.763-.014 2.566.464 2.645 2.4.062 1.515-1.036 2.123-1.733 2.028-.56-.08-.96-.604-1.292-1.131-.335-.535-.867-.851-1.399-.668-.532.186-3.512 2.154-3.681 4.952-.121 2.06 0 8.482 0 8.482 0 .973.366 1.35.794 1.61.425.263 1.99.277 2.428.34.446.064.428.17.428.31 0 .137 0 .204-.394.204H84.258c-.335 0-.47-.067-.47-.268 0-.277.439-.228.773-.277.335-.046 2.107.102 2.615-.805.373-.594.328-1.55.328-1.55l-.052-11.28c0-.91-.266-1.043-.511-1.188-.249-.144-.66-.22-1.526.078-.819.274-1.382.53-1.537.183zm-36.645.004c-.142-.277.12-.457.897-.664.867-.236 2.767-.823 4.272-1.69 1.506-.866 1.765-.957 2.083-.851.321.109.29.681.29 1.145v14.594c0 .82.107 1.16.47 1.501.366.341 1.277.541 2.462.541.535 0 .701.064.701.296 0 .232-.166.232-.38.232H47.63c-.322 0-.398-.141-.398-.278 0-.172.142-.281.626-.281.407 0 2.29.144 2.718-.85.165-.38.245-.911.245-1.407V25.184c0-.879-.67-1.269-1.444-1.079-.905.211-1.958.731-2.145.37zm5.301-10.094c1.412 0 2.559-1.168 2.559-2.602 0-1.437-1.147-2.6-2.56-2.6-1.408 0-2.552 1.163-2.552 2.6 0 1.434 1.144 2.601 2.553 2.601zm12.498 16.551c.514 4.735 3.284 8.418 6.717 7.8 3.44-.62 5.163-3.962 4.749-9.315-.425-5.445-3.07-8.162-6.631-7.835-3.682.341-5.353 4.612-4.835 9.35zm3.405-10.183c4.43-.843 10.734.151 12.167 7.21 1.43 7.057-3.343 10.815-7.484 11.732-4.047.893-10.92.257-12.163-7.335-1.12-6.816 3.74-10.897 7.48-11.607zM15.978 38.435h2.57c9.559 0 12.125-.903 15.489-5.451C37.4 28.435 37.8 21.904 37.8 19.697c0-2.207-.577-7.746-3.94-12.432-3.368-4.685-8.987-5.901-13.9-5.901h-4.003c-.95 0-.999.429-.999 1.103v35.11c0 .767.266.858 1.02.858zm-15.565.823c0-.355.453-.415.874-.43 4.866-.14 5.774-.312 6.33-.899.304-.323.75-.587.75-2.882V3.469c0-2.836-3.385-2.386-5.775-2.636-.839-.084-.908-.2-.908-.45 0-.246.159-.365.598-.383h19.605c21.557 0 22.659 16.038 22.659 20.316 0 9.191-5.971 19.3-18.453 19.3H1.043c-.308 0-.629-.042-.629-.358z" fill="#211E1E"/></svg>