<svg width="140" height="28" fill="none" xmlns="http://www.w3.org/2000/svg"><path d="M125.257 27.571c8.886 0 14.743-6.257 14.743-13.714C140 6.714 134.743 0 125.114 0c-8.457 0-14.428 6.114-14.428 13.714-.143 7.715 5.828 13.857 14.571 13.857zm-10.2-13.857c0-5.4 4.372-9.914 10.2-9.914 5.829 0 10.2 4.514 10.2 9.914 0 5.4-4.514 9.915-10.2 9.915-5.971 0-10.2-4.372-10.2-9.915z" fill="#000"/><path d="M75.971 4.8V.857H62.714V4.8h4.372v18.229h-4.372v3.942h13.257V23.03H71.6V4.8h4.371zM30.2.857V4.8h4.514v18.229H30.2v3.942h29.6v-8.885h-4.514v4.971H39.257V16.03H46.4v2.628h4.514V9.03H46.4v3.057h-7.143V4.8h16.029v5.257H59.8v-9.2H30.2zm-6.571 18.686c0 2.2-2.029 4.228-8.315 4.228-2.914 0-10.057-1.171-10.057-4.228V17.8H.571v9.029h4.515v-1.6c1.314.742 5.257 2.342 10.343 2.342 5.085 0 8.885-1.028 10.485-3.057 1.172-1.457 2.029-3.057 2.029-5.114 0-3.657-2.629-6.429-5.972-7.143-.571-.143-2.914-.428-4.228-.428-3.8.142-7.429-.143-10.2-.429-1.743-.286-3.057-1.171-3.057-3.2 0-.886.285-1.743.885-2.2 1.458-1.457 4.372-2.029 7.743-1.886C16.457 4.257 18.8 5.143 20.686 6c1.6.743 2.2 1.6 2.2 2.914v1.172h4.543V.857h-4.543v1.886C21.429 1.886 17.514.286 12.4.286 7 .286 4.086 1.314 2.343 3.057 1.029 4.23 0 6.257 0 8.314c0 3.057 1.743 5.257 4.229 6.257C7 15.6 12.686 15.743 15.457 15.886c2.629.143 4.972 0 6.572.885 1 .429 1.6 1.6 1.6 2.772zm74.228 7.428h13.429V23.03h-3.8L98 11.657l9.029-6.857h3.8V.857H97.857V4.8h2.772L87.657 14.857V4.8h4.372V.857H78.6V4.8h4.371v18.229H78.6v3.942h13.429V23.03h-4.372v-3.343l6.714-5.257 7.143 8.6h-3.657v3.942z" fill="#000"/></svg>