<svg width="87" height="36" fill="none" xmlns="http://www.w3.org/2000/svg"><path fill-rule="evenodd" clip-rule="evenodd" d="M.515 1.703h9.193c2.202 0 4.362.163 6.503.51 2.12.326 4.117 1.263 5.993 2.771 1.753 1.489 3.119 3.385 4.097 5.688.999 2.303 1.55 4.668 1.63 7.114.042.163.062.347.062.53v.897a20.149 20.149 0 01-1.59 7.379c-.978 2.365-2.426 4.301-4.342 5.83-1.692 1.244-3.486 2.038-5.422 2.405-1.916.388-3.893.592-5.89.673H.514V1.703zm6.727 27.702c.224 0 .469 0 .734.02s.55.02.835.02h.551c.204.042.387.062.591.062h.55c.326 0 .652-.02.979-.041.326 0 .652-.04.999-.061a15.873 15.873 0 002.915-.53c.937-.286 1.773-.713 2.466-1.284 1.08-.917 1.896-2.16 2.446-3.71.55-1.55.836-3.16.857-4.831v-.693a15.167 15.167 0 00-.836-4.79c-.53-1.55-1.325-2.814-2.365-3.792a6.015 6.015 0 00-2.63-1.468 13.673 13.673 0 00-3.057-.448 3.987 3.987 0 00-.693-.062H7.242v21.608zm39.688 5.544l-2.059-2.425a11.032 11.032 0 01-3.037 1.997c-1.141.53-2.324.836-3.506.938-.123.02-.245.041-.367.041h-.367c-.265 0-.51-.02-.775-.04-.265-.021-.51-.062-.774-.082-.51-.102-1.02-.244-1.529-.429a7.853 7.853 0 01-1.447-.692c-.836-.571-1.488-1.325-1.998-2.242-.51-.938-.815-1.896-.917-2.875-.02-.122-.02-.244-.02-.346v-.571c.02-.102.02-.204.02-.306 0-.04.02-.061.02-.08.02-.043.02-.062.02-.124 0-.04.02-.102.02-.183.021-.061.021-.123.021-.163.265-1.447.877-2.65 1.855-3.609a20.584 20.584 0 013.22-2.547 11.863 11.863 0 01-1.813-2.508 5.624 5.624 0 01-.734-2.751c0-.184 0-.367.04-.571.02-.184.041-.388.062-.55.04-.143.06-.265.102-.388.04-.143.081-.265.101-.387.408-1.284 1.203-2.202 2.365-2.793a8.04 8.04 0 013.71-.897 8.07 8.07 0 014.526 1.346c1.365.876 2.059 2.2 2.059 3.913v.428c-.102 1.08-.51 2.018-1.203 2.793a18.134 18.134 0 01-2.242 2.1 2.984 2.984 0 00-.53.346 7.183 7.183 0 01-.49.347l4.138 4.831c.224-.204.428-.408.632-.612.204-.204.387-.407.571-.632.428-.407.836-.836 1.244-1.264a35.31 35.31 0 001.162-1.325l2.751 2.916c-.306.326-.632.651-.938.977-.305.327-.611.653-.917 1-.346.325-.672.651-.978.978l-.917.979 4.525 5.462H46.93zm-11.741-5.075c.264.347.53.632.774.856.265.245.53.408.816.55.265.143.51.265.774.327.265.061.51.102.775.102.55 0 1.06-.122 1.528-.326a8.274 8.274 0 002.487-1.814l-4.627-5.524c-.102.06-.204.142-.326.203-.102.061-.184.142-.265.204-.49.428-.958.897-1.386 1.427a4.843 4.843 0 00-.938 1.651 3.25 3.25 0 00-.102.428c-.04.143-.04.306-.04.449 0 .264.04.509.142.753.102.245.245.49.388.714zm3.71-10.6c.04-.02.06-.04.081-.061.04-.02.061-.02.122-.061.02-.02.062-.041.082-.082.02-.02.04-.02.082-.02.509-.367.978-.754 1.426-1.142.428-.407.714-.937.856-1.57v-.468c0-.673-.244-1.223-.713-1.63a2.838 2.838 0 00-1.508-.735h-.53c-.408.041-.816.225-1.183.53-.367.286-.59.734-.631 1.325 0 .02-.02.062-.02.102-.021.041-.021.082-.021.143 0 .02-.02.04-.02.081-.021.041-.021.082-.021.143 0 .51.142 1 .428 1.427.285.448.591.877.917 1.284.143.122.245.245.347.367l.305.367zm48.086-2.181v1.121c0 3.058-.51 5.912-1.529 8.582-1.019 2.67-2.975 4.831-5.931 6.482-.938.611-1.957 1.06-3.099 1.407-1.12.325-2.242.57-3.363.713-.408.02-.796.061-1.162.08-.388 0-.754.021-1.121.021h-.652c-.225 0-.428-.02-.653-.06-2.73-.163-5.34-.918-7.888-2.243-2.528-1.305-4.587-3.078-6.136-5.3a17.373 17.373 0 01-1.855-3.812 19.25 19.25 0 01-.937-4.097c-.02-.265-.062-.57-.082-.856 0-.306-.02-.611-.02-.917 0-3.242.835-6.32 2.527-9.255 1.692-2.935 4.077-5.157 7.155-6.665a12.202 12.202 0 012.018-.796 32.215 32.215 0 012.12-.59A17.968 17.968 0 0168.437.6a17.264 17.264 0 012.016-.1h.489c2.65.061 5.218.693 7.726 1.855a19.743 19.743 0 016.461 4.892l-4.892 3.567c-1.345-1.325-2.752-2.344-4.26-3.078a11.144 11.144 0 00-4.811-1.08c-.55 0-1.121.04-1.692.102-.59.081-1.182.183-1.794.326-2.507.775-4.383 2.222-5.667 4.342-1.263 2.14-1.895 4.383-1.895 6.788 0 .163 0 .346.02.55.02.184.061.367.081.55 0 .103.02.205.041.286.02.081.02.183.02.285a.992.992 0 01.082.266c.02.101.02.203.02.264.449 2.63 1.57 4.71 3.404 6.198 1.835 1.487 3.813 2.405 5.953 2.71.285.082.611.122.937.143.326.02.632.02.918.02 2.038 0 3.832-.55 5.442-1.63 1.59-1.1 2.385-2.65 2.385-4.688l.102-.225h-8.317v-5.85h15.778z" fill="#000"/></svg>