<svg width="495" height="260" fill="none" xmlns="http://www.w3.org/2000/svg"><path d="M75.36 74.4L23.04 174.96c-1.6 3.04-1.68 5.68-.24 7.92 1.6 2.24 3.92 3.36 6.96 3.36h101.76v7.2l-23.04 1.2h-82.8c-3.52 0-6.56-1.04-9.12-3.12-2.4-2.08-3.92-4.72-4.56-7.92-.64-3.2-.16-6.4 1.44-9.6l51.84-99.6h10.08zm36 31.44V240h-9.6V133.68l2.16-27.84h7.44zM427.704 74.4l-52.32 100.56c-1.6 3.04-1.68 5.68-.24 7.92 1.6 2.24 3.92 3.36 6.96 3.36h101.76v7.2l-23.04 1.2h-82.8c-3.52 0-6.56-1.04-9.12-3.12-2.4-2.08-3.92-4.72-4.56-7.92-.64-3.2-.16-6.4 1.44-9.6l51.84-99.6h10.08zm36 31.44V240h-9.6V133.68l2.16-27.84h7.44z" fill="#000"/><g clip-path="url(#clip0_7_643)"><path d="M203.417 216.094c-3.789 0-6.858-1.068-8.957-3.212-5.16-5.259-4.046-16.611 3.031-31.145 13.867-28.349 46.361-61.251 72.466-73.338 11.913-5.516 21.006-5.971 25.598-1.28 5.153 5.259 4.047 16.61-3.031 31.137-13.845 28.363-46.338 61.258-72.436 73.345-6.502 2.993-12.132 4.493-16.671 4.493zm66.806-107.157c-25.992 12.034-58.349 44.808-72.156 73.058-6.979 14.299-8.131 25.4-3.16 30.477 4.403 4.501 13.261 4.001 24.931-1.409 25.984-12.034 58.349-44.807 72.156-73.057 6.979-14.3 8.13-25.401 3.159-30.478-4.41-4.501-13.261-4.001-24.93 1.409z" fill="url(#paint0_linear_7_643)"/><path d="M200.674 216.86c-4.463 0-7.934-1.281-10.185-3.85-5.251-5.994-3.319-18.368 5.305-33.948 16.262-29.387 51.529-61.933 78.543-72.542 11.882-4.661 20.816-4.494 25.166.47 5.259 5.994 3.327 18.368-5.304 33.948-16.262 29.387-51.529 61.933-78.551 72.542-5.737 2.258-10.791 3.38-14.974 3.38zm88.66-113.144c-4.1 0-9.094 1.114-14.769 3.349-26.939 10.571-62.047 42.997-78.256 72.285-8.495 15.345-10.45 27.477-5.365 33.274 4.168 4.766 12.882 4.872 24.507.31 26.938-10.571 62.039-42.996 78.248-72.284 8.494-15.345 10.457-27.477 5.372-33.274-2.137-2.44-5.456-3.66-9.745-3.66h.008z" fill="url(#paint1_linear_7_643)"/><path d="M198.166 217.443c-5.267 0-9.253-1.515-11.655-4.622-5.305-6.82-2.478-20.233 7.797-36.813 18.763-30.311 56.705-62.183 84.576-71.11 11.768-3.789 20.505-2.963 24.605 2.274 5.304 6.82 2.478 20.232-7.805 36.812-18.763 30.311-56.697 62.183-84.568 71.11a43.132 43.132 0 01-12.95 2.349zm93.676-114.303c-4.357.116-8.67.895-12.791 2.311-27.75 8.897-65.548 40.685-84.25 70.86-10.139 16.368-12.996 29.553-7.835 36.146 3.932 5.039 12.442 5.782 23.96 2.091 27.765-8.873 65.563-40.7 84.265-70.859 10.139-16.368 12.996-29.554 7.836-36.146-2.289-2.925-6.116-4.403-11.185-4.403z" fill="url(#paint2_linear_7_643)"/><path d="M195.809 217.89c-6.183 0-10.692-1.887-13.276-5.615-5.305-7.722-1.516-22.203 10.571-39.723 21.331-31.008 61.902-61.955 90.448-68.957 11.761-2.895 20.028-1.455 23.908 4.16 5.304 7.722 1.515 22.203-10.564 39.723-21.331 31.008-61.91 61.955-90.448 68.957a45.223 45.223 0 01-10.639 1.455zm98.397-115.197a44.212 44.212 0 00-10.518 1.44c-28.424 6.994-68.844 37.836-90.107 68.745-11.905 17.308-15.754 31.547-10.563 39.056 3.736 5.395 11.783 6.752 23.286 3.918 28.424-6.994 68.844-37.836 90.107-68.746 11.905-17.307 15.762-31.546 10.609-39.055-2.508-3.554-6.85-5.358-12.814-5.358z" fill="url(#paint3_linear_7_643)"/><path d="M193.968 218.133c-7.404 0-12.655-2.273-15.376-6.82-5.304-8.737-.326-24.249 13.602-42.633 23.954-31.561 67.079-61.22 96.124-66.131 11.511-1.947 19.498.167 23.09 6.062 5.304 8.738.326 24.249-13.64 42.633-23.923 31.614-67.041 61.251-96.086 66.184a46.521 46.521 0 01-7.714.705zM296.04 102.451a46.167 46.167 0 00-7.623.697c-28.924 4.888-71.875 34.456-95.753 65.926-13.579 17.892-18.649 33.578-13.572 41.974 3.456 5.706 11.231 7.721 22.491 5.819 28.925-4.887 71.875-34.456 95.753-65.926 13.579-17.891 18.649-33.577 13.572-41.973-2.615-4.312-7.692-6.517-14.868-6.517z" fill="url(#paint4_linear_7_643)"/><path d="M192.664 218.247c-8.934 0-15.095-2.827-17.944-8.283-5.077-9.715 1.25-26.727 16.929-45.52 26.613-31.902 72.155-59.94 101.542-62.501 11.207-.978 18.861 1.819 22.134 8.093 5.07 9.715-1.257 26.727-16.928 45.52-26.613 31.902-72.156 59.94-101.542 62.501-1.47.121-2.872.19-4.191.19zm100.519-115.721c-29.235 2.554-74.595 30.501-101.125 62.297-15.512 18.604-21.816 35.373-16.861 44.868 3.16 6.062 10.609 8.737 21.567 7.783 29.235-2.554 74.603-30.501 101.133-62.297 15.511-18.604 21.816-35.373 16.853-44.868-3.153-6.062-10.609-8.737-21.567-7.783z" fill="url(#paint5_linear_7_643)"/><path d="M191.982 218.277c-10.859 0-18.149-3.516-21.074-10.162-4.811-10.935 2.865-29 20.544-48.331 29.25-32.016 77.081-58.061 106.543-58.061 10.859 0 18.141 3.516 21.066 10.162 4.82 10.935-2.864 29-20.543 48.331-29.243 32.016-77.058 58.061-106.536 58.061zm106.013-115.963c-29.318 0-76.929 25.954-106.089 57.894-17.512 19.149-25.158 36.98-20.46 47.695 2.827 6.411 9.927 9.805 20.536 9.805 29.341 0 76.952-25.953 106.142-57.871 17.52-19.149 25.158-36.979 20.46-47.694-2.827-6.411-9.927-9.806-20.536-9.806l-.053-.023z" fill="url(#paint6_linear_7_643)"/><path d="M192.013 218.277c-1.698 0-3.34-.076-4.926-.227-10.473-1.001-17.346-5.259-19.884-12.314-4.403-12.276 4.736-31.342 24.446-51.014 31.978-31.902 81.885-55.575 111.264-52.771 10.473 1 17.346 5.259 19.877 12.313 4.402 12.276-4.729 31.342-24.446 51.014-30.243 30.182-76.551 52.999-106.331 52.999zm105.982-115.97c-29.636 0-75.778 22.733-105.899 52.832-19.543 19.505-28.637 38.343-24.31 50.4 2.456 6.82 9.154 10.95 19.384 11.927 29.22 2.789 78.923-20.808 110.795-52.605 19.543-19.505 28.629-38.343 24.302-50.4-2.448-6.82-9.154-10.957-19.377-11.927a52.352 52.352 0 00-4.895-.227z" fill="url(#paint7_linear_7_643)"/><path d="M192.861 218.322a53.882 53.882 0 01-10.609-.977c-10.063-2.016-16.481-7.063-18.573-14.603-3.789-13.715 6.903-33.706 28.637-53.484 34.63-31.515 86.424-52.423 115.447-46.603 10.063 2.016 16.481 7.063 18.573 14.603 3.789 13.715-6.911 33.705-28.637 53.483-30.735 27.962-74.974 47.574-104.838 47.581zm104.232-116.061c-29.697 0-73.762 19.558-104.391 47.429-21.566 19.627-32.206 39.405-28.462 52.901 2.023 7.305 8.29 12.208 18.118 14.185 3.474.663 7.004.986 10.541.963 29.705 0 73.762-19.558 104.399-47.43 21.559-19.626 32.205-39.404 28.462-52.9-2.023-7.305-8.29-12.208-18.118-14.178a53.728 53.728 0 00-10.549-.97z" fill="url(#paint8_linear_7_643)"/><path d="M194.68 218.489a56.84 56.84 0 01-17.202-2.364c-9.639-3.069-15.564-8.965-17.133-17.058-2.955-15.246 9.412-36.055 33.092-55.658 37.245-30.857 90.676-48.59 119.085-39.534 9.639 3.069 15.557 8.965 17.133 17.058 2.955 15.246-9.412 36.055-33.092 55.659-30.66 25.393-72.269 41.897-101.883 41.897zm100.595-116.402c-29.455 0-70.905 16.459-101.467 41.769-23.491 19.467-35.805 40.071-32.887 55.105 1.515 7.858 7.312 13.602 16.732 16.603 28.25 9.002 81.423-8.684 118.539-39.404 23.491-19.468 35.797-40.072 32.887-55.106-1.515-7.858-7.312-13.602-16.732-16.603a56.565 56.565 0 00-17.072-2.364z" fill="url(#paint9_linear_7_643)"/><path d="M197.582 218.898c-9.487 0-17.952-1.462-24.749-4.546-9.207-4.183-14.58-11.011-15.534-19.748-1.842-16.823 12.276-38.298 37.767-57.432 39.806-29.879 94.594-44.02 122.101-31.523 9.207 4.182 14.579 11.01 15.534 19.747 1.842 16.823-12.283 38.298-37.767 57.432-29.97 22.499-68.428 36.07-97.352 36.07zm94.798-117.22c-28.796 0-67.086 13.534-96.995 35.964-25.325 19.013-39.359 40.283-37.541 56.901.925 8.518 6.184 15.156 15.156 19.271 27.348 12.42 81.84-1.69 121.502-31.456 25.325-19.012 39.359-40.283 37.54-56.901-.932-8.518-6.183-15.156-15.156-19.27-6.706-3.062-15.102-4.509-24.506-4.509z" fill="url(#paint10_linear_7_643)"/><path d="M201.621 219.671c-13.193 0-24.757-2.47-33.259-7.684-8.782-5.38-13.534-13.246-13.746-22.733-.417-18.437 15.519-40.344 42.595-58.675 42.261-28.583 98.071-38.707 124.404-22.566 8.775 5.38 13.534 13.246 13.746 22.733.409 18.399-15.519 40.329-42.625 58.659-28.591 19.369-63.426 30.266-91.115 30.266zm86.735-118.774c-27.545 0-62.259 10.867-90.789 30.167-26.939 18.225-42.777 39.965-42.367 58.16.212 9.29 4.865 16.989 13.465 22.263 26.159 16.035 81.681 5.918 123.768-22.551 26.931-18.187 42.769-39.965 42.36-58.16-.205-9.29-4.865-16.989-13.466-22.263-8.419-5.138-19.892-7.616-32.971-7.616z" fill="url(#paint11_linear_7_643)"/><path d="M206.736 220.944c-17.429 0-32.584-3.887-42.625-11.942-8.335-6.707-12.382-15.755-11.685-26.159 1.334-19.876 19.111-42.011 47.551-59.197 44.595-26.954 101.049-32.63 125.912-12.648 8.335 6.707 12.382 15.755 11.685 26.159-1.334 19.876-19.119 41.996-47.551 59.197-26.613 16.08-57.462 24.59-83.287 24.59zm76.535-121.32c-25.711 0-56.446 8.487-82.984 24.522-28.28 17.095-45.951 39.048-47.27 58.735-.682 10.207 3.281 19.081 11.473 25.666 24.643 19.861 80.824 14.14 125.23-12.723 28.28-17.096 45.944-39.048 47.263-58.735.689-10.208-3.282-19.081-11.465-25.666-9.92-7.949-24.947-11.799-42.254-11.799h.007z" fill="url(#paint12_linear_7_643)"/><path d="M212.7 222.854c-22.158 0-41.36-5.797-52.56-17.482-7.881-8.214-11.078-18.611-9.252-30.061 3.38-21.218 22.968-43.193 52.415-58.91 46.785-24.968 103.558-25.764 126.549-1.773 7.873 8.214 11.079 18.611 9.252 30.061-3.379 21.18-22.975 43.193-52.415 58.91-23.999 12.814-50.635 19.255-73.989 19.255zm64.615-125.14c-23.248 0-49.801 6.426-73.731 19.203-29.288 15.625-48.771 37.487-52.12 58.485-1.796 11.26 1.356 21.483 9.093 29.553 22.832 23.809 79.286 22.961 125.852-1.887 29.288-15.625 48.763-37.487 52.112-58.485 1.796-11.261-1.349-21.483-9.093-29.553-11.087-11.572-30.13-17.316-52.113-17.316z" fill="url(#paint13_linear_7_643)"/><path d="M219.141 225.529c-27.144 0-50.771-8.374-62.638-24.461-7.358-9.95-9.54-21.893-6.312-34.54 5.66-22.172 26.992-43.731 57.068-57.667 48.786-22.597 105.414-18.08 126.238 10.071 7.358 9.95 9.54 21.892 6.312 34.54-5.668 22.172-26.999 43.731-57.068 57.666-20.899 9.692-43.254 14.391-63.6 14.391zm51.748-130.49c-20.27 0-42.541 4.691-63.388 14.353-29.909 13.852-51.127 35.267-56.742 57.28-3.19 12.466-1.038 24.249 6.214 34.039 20.664 27.94 76.975 32.38 125.526 9.852 29.894-13.815 51.112-35.199 56.742-57.243 3.183-12.465 1.038-24.249-6.214-34.039-11.791-15.906-35.199-24.242-62.138-24.242z" fill="url(#paint14_linear_7_643)"/><path d="M225.574 229.045c-32.205 0-60.349-11.731-72.322-32.986-6.736-11.958-7.676-25.651-2.713-39.602 8.101-22.771 31.024-43.488 61.312-55.355 50.574-19.854 106.604-9.601 124.889 22.862 6.744 11.958 7.684 25.651 2.721 39.601-8.109 22.787-31.024 43.489-61.312 55.379a144.992 144.992 0 01-52.575 10.101zm38.882-137.514a144.532 144.532 0 00-52.393 10.094c-30.129 11.829-52.923 32.402-60.97 55.029-4.911 13.784-3.979 27.28 2.674 39.117 18.149 32.221 73.853 42.36 124.17 22.604 30.129-11.829 52.923-32.402 60.978-55.029 4.903-13.784 3.978-27.28-2.675-39.117-11.874-21.066-39.806-32.698-71.784-32.698z" fill="url(#paint15_linear_7_643)"/><path d="M231.538 233.455c-37.131 0-69.784-16.042-81.082-43.117-5.964-14.292-5.38-29.94 1.69-45.247 10.609-22.915 34.857-42.36 64.956-52.007 52.12-16.67 107.051-.303 122.442 36.578 5.964 14.292 5.373 29.94-1.697 45.247-10.609 22.915-34.858 42.36-64.95 52.006a135.943 135.943 0 01-41.359 6.54zm26.947-146.327a135.338 135.338 0 00-41.201 6.517c-29.94 9.601-54.09 28.925-64.608 51.688-6.994 15.156-7.578 30.645-1.682 44.777 11.207 26.856 43.595 42.762 80.521 42.762a135.194 135.194 0 0041.201-6.517c29.939-9.601 54.09-28.925 64.6-51.688 7.002-15.156 7.578-30.645 1.682-44.777-11.207-26.856-43.587-42.762-80.513-42.762z" fill="url(#paint16_linear_7_643)"/><path d="M236.653 238.782c-41.943 0-78.68-21.422-88.486-54.901-4.963-16.974-2.531-34.736 7.048-51.377 13.147-22.855 37.889-40.162 67.821-47.573 53.385-13.163 106.68 9.806 118.789 51.188 4.971 16.974 2.531 34.736-7.04 51.377-13.155 22.854-37.889 40.162-67.821 47.573a126.658 126.658 0 01-30.311 3.713zm16.671-156.98a126.052 126.052 0 00-30.182 3.697c-29.796 7.343-54.378 24.582-67.442 47.293-9.495 16.504-11.913 34.1-6.987 50.923 9.722 33.221 46.224 54.476 87.902 54.484a125.995 125.995 0 0030.205-3.729c29.796-7.342 54.386-24.582 67.442-47.292 9.495-16.505 11.912-34.1 6.987-50.923-9.707-33.191-46.217-54.454-87.895-54.454h-.03z" fill="url(#paint17_linear_7_643)"/><path d="M240.684 245.004c-46.504 0-86.795-27.962-94.244-68.329-3.63-19.702 1.144-40.261 13.435-57.826 15.33-21.907 40.761-37.283 69.769-42.193 54.332-9.192 105.422 20.718 113.878 66.684 3.638 19.703-1.136 40.261-13.427 57.826-15.33 21.908-40.761 37.283-69.769 42.193a117.847 117.847 0 01-19.642 1.645zm8.639-169.424c-6.544.005-13.076.558-19.528 1.652-28.856 4.88-54.151 20.172-69.389 41.958-12.201 17.429-16.937 37.813-13.337 57.379 7.38 40.071 47.429 67.851 93.646 67.851 6.543.007 13.075-.533 19.528-1.614 28.856-4.88 54.143-20.172 69.389-41.958 12.201-17.429 16.937-37.813 13.33-57.379-7.374-40.094-47.422-67.89-93.639-67.89z" fill="url(#paint18_linear_7_643)"/><path d="M243.481 252.089c-50.885 0-93.965-35.767-98.102-83.356-4.426-50.566 36.676-95.6 91.6-100.405 26.605-2.326 52.453 5.016 72.746 20.68 20.294 15.663 32.714 37.782 34.858 62.274 2.145 24.491-6.206 48.422-23.491 67.389s-41.481 30.675-68.086 33.001c-3.19.28-6.381.417-9.525.417zm3.144-183.572c-3.182 0-6.38.142-9.593.425-54.613 4.774-95.48 49.528-91.07 99.753 4.138 47.293 46.945 82.841 97.519 82.841 3.137 0 6.299-.139 9.487-.417 26.462-2.311 50.506-13.966 67.7-32.812 17.194-18.846 25.499-42.617 23.37-66.942-2.13-24.325-14.398-46.3-34.638-61.865-17.755-13.716-39.753-20.983-62.775-20.983z" fill="url(#paint19_linear_7_643)"/><path d="M244.996 260c-55.136 0-100.026-44.86-100.026-100.026 0-55.167 44.86-100.027 100.026-100.027s100.027 44.86 100.027 100.027C345.023 215.14 300.14 260 244.996 260zm0-199.416c-54.817 0-99.412 44.595-99.412 99.412 0 54.818 44.595 99.421 99.412 99.421 54.818 0 99.421-44.596 99.421-99.421 0-54.825-44.603-99.412-99.421-99.412z" fill="url(#paint20_linear_7_643)"/></g><defs><linearGradient id="paint0_linear_7_643" x1="191.255" y1="103.904" x2="296.182" y2="204.446" gradientUnits="userSpaceOnUse"><stop/><stop offset="1" stop-opacity="0"/></linearGradient><linearGradient id="paint1_linear_7_643" x1="187.586" y1="103.142" x2="294.033" y2="210.627" gradientUnits="userSpaceOnUse"><stop/><stop offset="1" stop-opacity="0"/></linearGradient><linearGradient id="paint2_linear_7_643" x1="183.891" y1="102.551" x2="291.238" y2="216.741" gradientUnits="userSpaceOnUse"><stop/><stop offset="1" stop-opacity="0"/></linearGradient><linearGradient id="paint3_linear_7_643" x1="180.192" y1="102.139" x2="287.859" y2="222.695" gradientUnits="userSpaceOnUse"><stop/><stop offset="1" stop-opacity="0"/></linearGradient><linearGradient id="paint4_linear_7_643" x1="176.517" y1="101.845" x2="283.933" y2="228.362" gradientUnits="userSpaceOnUse"><stop/><stop offset="1" stop-opacity="0"/></linearGradient><linearGradient id="paint5_linear_7_643" x1="173.001" y1="101.752" x2="279.642" y2="233.607" gradientUnits="userSpaceOnUse"><stop/><stop offset="1" stop-opacity="0"/></linearGradient><linearGradient id="paint6_linear_7_643" x1="169.5" y1="101.723" x2="275.053" y2="238.448" gradientUnits="userSpaceOnUse"><stop/><stop offset="1" stop-opacity="0"/></linearGradient><linearGradient id="paint7_linear_7_643" x1="166.116" y1="101.725" x2="270.406" y2="242.888" gradientUnits="userSpaceOnUse"><stop/><stop offset="1" stop-opacity="0"/></linearGradient><linearGradient id="paint8_linear_7_643" x1="162.928" y1="101.683" x2="266.037" y2="246.797" gradientUnits="userSpaceOnUse"><stop/><stop offset="1" stop-opacity="0"/></linearGradient><linearGradient id="paint9_linear_7_643" x1="159.914" y1="101.509" x2="262.164" y2="250.243" gradientUnits="userSpaceOnUse"><stop/><stop offset="1" stop-opacity="0"/></linearGradient><linearGradient id="paint10_linear_7_643" x1="157.138" y1="101.1" x2="259.143" y2="253.264" gradientUnits="userSpaceOnUse"><stop/><stop offset="1" stop-opacity="0"/></linearGradient><linearGradient id="paint11_linear_7_643" x1="154.608" y1="100.33" x2="257.342" y2="255.936" gradientUnits="userSpaceOnUse"><stop/><stop offset="1" stop-opacity="0"/></linearGradient><linearGradient id="paint12_linear_7_643" x1="152.349" y1="99.054" x2="257.125" y2="258.338" gradientUnits="userSpaceOnUse"><stop/><stop offset="1" stop-opacity="0"/></linearGradient><linearGradient id="paint13_linear_7_643" x1="150.388" y1="97.142" x2="258.872" y2="260.427" gradientUnits="userSpaceOnUse"><stop/><stop offset="1" stop-opacity="0"/></linearGradient><linearGradient id="paint14_linear_7_643" x1="148.74" y1="94.474" x2="262.876" y2="262.141" gradientUnits="userSpaceOnUse"><stop/><stop offset="1" stop-opacity="0"/></linearGradient><linearGradient id="paint15_linear_7_643" x1="147.401" y1="90.979" x2="269.266" y2="263.271" gradientUnits="userSpaceOnUse"><stop/><stop offset="1" stop-opacity="0"/></linearGradient><linearGradient id="paint16_linear_7_643" x1="146.376" y1="86.558" x2="278.124" y2="263.462" gradientUnits="userSpaceOnUse"><stop/><stop offset="1" stop-opacity="0"/></linearGradient><linearGradient id="paint17_linear_7_643" x1="145.66" y1="81.219" x2="289.278" y2="262.313" gradientUnits="userSpaceOnUse"><stop/><stop offset="1" stop-opacity="0"/></linearGradient><linearGradient id="paint18_linear_7_643" x1="145.255" y1="74.996" x2="302.391" y2="259.351" gradientUnits="userSpaceOnUse"><stop/><stop offset="1" stop-opacity="0"/></linearGradient><linearGradient id="paint19_linear_7_643" x1="145.052" y1="67.906" x2="316.894" y2="254.375" gradientUnits="userSpaceOnUse"><stop/><stop offset="1" stop-opacity="0"/></linearGradient><linearGradient id="paint20_linear_7_643" x1="144.97" y1="59.947" x2="332.241" y2="247.219" gradientUnits="userSpaceOnUse"><stop/><stop offset="1" stop-opacity="0"/></linearGradient><clipPath id="clip0_7_643"><path fill="#fff" transform="translate(145 60)" d="M0 0h200v200H0z"/></clipPath></defs></svg>