<svg width="322" height="83" viewBox="0 0 322 83" fill="none" xmlns="http://www.w3.org/2000/svg">
    <path d="M274.564 2.23922L274.564 2.23925C275.478 2.32122 276.39 2.40287 277.298 2.48422C288.341 3.47299 298.866 4.41535 306.823 5.31648C311.127 5.80402 314.687 6.28016 317.172 6.74601C318.413 6.97862 319.397 7.2105 320.074 7.44311C320.411 7.55883 320.686 7.67949 320.882 7.80856C321.063 7.92724 321.252 8.10378 321.252 8.35116C321.252 8.58184 321.263 8.99851 321.278 9.54802C321.317 11.0521 321.382 13.5513 321.321 15.9557C321.28 17.601 321.179 19.2209 320.969 20.4719C320.864 21.0962 320.73 21.6415 320.555 22.0559C320.387 22.455 320.154 22.8023 319.807 22.9144L319.805 22.9152C319.393 23.0438 318.825 23.115 318.204 23.1927C318.116 23.2036 318.028 23.2148 317.938 23.2262C317.202 23.3202 316.385 23.4376 315.582 23.6703C313.985 24.1335 312.466 25.0445 311.782 27.1243C311.609 27.6485 311.423 28.5986 311.215 29.8922C311.008 31.1797 310.782 32.7883 310.525 34.6186L310.5 34.7957C309.991 38.4229 309.365 42.8878 308.541 47.4038C307.703 51.9923 306.66 56.6422 305.325 60.5263C303.994 64.3964 302.357 67.5592 300.301 69.1155L300.301 69.1158C299.177 69.9623 297.211 70.8877 294.6 71.8401C291.981 72.795 288.693 73.7845 284.906 74.7525C277.332 76.6885 267.755 78.5415 257.545 79.8597C237.139 82.4943 214.146 83.0009 199.566 77.7243L199.636 77.5303L199.566 77.7243C197.089 76.8274 194.774 74.5964 192.673 71.6871C190.567 68.7717 188.655 65.1438 186.992 61.4056C183.666 53.9289 181.324 45.977 180.437 42.3154L180.436 42.3136C179.943 40.2116 179.434 37.7591 178.915 35.2566C178.532 33.4145 178.145 31.5452 177.753 29.7686C177.29 27.6685 176.821 25.6934 176.348 24.031C175.873 22.3632 175.399 21.0294 174.931 20.1999L174.93 20.198C173.689 17.9547 171.043 16.9476 168.245 16.5145C165.97 16.1623 163.657 16.1981 162.032 16.2232C161.665 16.2289 161.333 16.234 161.044 16.234C160.774 16.234 160.465 16.2299 160.125 16.2254C158.501 16.2037 156.165 16.1726 153.865 16.5352C151.074 16.9751 148.425 17.9823 147.157 20.201C146.689 21.0303 146.219 22.3632 145.749 24.0304C145.28 25.6929 144.816 27.6679 144.357 29.7683C144.013 31.341 143.671 32.9853 143.331 34.619C142.765 37.3404 142.206 40.0323 141.652 42.3149L274.564 2.23922ZM274.564 2.23922C248.283 -0.0845312 198.122 0.356792 161.1 6.49374M274.564 2.23922L161.1 6.49374M161.1 6.49374C124.077 0.356792 73.9165 -0.0845312 47.636 2.23922L47.6357 2.23925C46.7212 2.32123 45.8091 2.4029 44.9005 2.48426C33.8579 3.47301 23.3336 4.41536 15.3769 5.31648C11.0721 5.80402 7.5126 6.28016 5.02718 6.74601C3.78616 6.97862 2.80269 7.2105 2.12549 7.44311C1.7886 7.55883 1.51307 7.67949 1.31711 7.80856C1.13691 7.92724 0.947182 8.10378 0.947182 8.35116C0.947182 8.58916 0.935544 9.02649 0.920173 9.60412C0.879998 11.1139 0.814317 13.5821 0.864264 15.9547C0.898894 17.5997 0.989007 19.2188 1.18348 20.4689C1.28052 21.0926 1.40535 21.637 1.56796 22.0504C1.72336 22.4455 1.94245 22.7978 2.27742 22.913C2.7115 23.0622 3.31411 23.141 3.96686 23.2264C4.02478 23.234 4.0831 23.2416 4.14173 23.2494C4.87534 23.3461 5.68678 23.4618 6.48642 23.6912C8.07678 24.1475 9.59602 25.0451 10.3076 27.1256C10.48 27.6501 10.6657 28.5997 10.8736 29.8922C11.0807 31.1797 11.3072 32.7883 11.564 34.6186L11.5888 34.7955C12.0977 38.4227 12.724 42.8877 13.5482 47.4038C14.3856 51.9923 15.4288 56.6422 16.764 60.5263C18.0944 64.3964 19.7317 67.5592 21.7877 69.1155L21.7882 69.1158C22.9121 69.9623 24.8779 70.8877 27.4893 71.8401C30.1076 72.795 33.3964 73.7845 37.183 74.7525C44.7567 76.6885 54.3337 78.5415 64.544 79.8597C84.9502 82.4943 107.943 83.0009 122.523 77.7243L161.1 6.49374ZM182.091 32.2854C181.842 28.1907 181.648 24.9744 181.593 22.4223C181.538 19.8675 181.622 17.9972 181.92 16.5889L181.921 16.5841C182.164 15.3132 182.565 14.418 183.157 13.7348C183.75 13.0504 184.553 12.5577 185.64 12.1232L185.643 12.1218C186.774 11.6504 189.274 11.0699 192.857 10.453C196.429 9.83786 201.055 9.19031 206.42 8.57881C217.151 7.35582 230.833 6.27782 244.957 5.89085C259.054 5.50387 271.657 5.79418 281.307 6.45039C286.132 6.77851 290.216 7.19795 293.378 7.66938C296.551 8.14239 298.768 8.66406 299.878 9.18586L299.881 9.18717C302.782 10.5058 306.592 15.3453 306.15 27.9776C306.04 31.1196 305.709 34.8142 304.992 39.0063L304.992 39.0076C304.777 40.3026 304.574 41.5405 304.38 42.7243C302.994 51.1621 302.06 56.8489 300.668 60.8273C299.877 63.0881 298.943 64.7789 297.706 66.1008C296.47 67.4216 294.919 68.3885 292.87 69.1807C283.827 72.6779 273.969 74.2293 262.108 76.0959C260.878 76.2894 259.626 76.4864 258.352 76.6892C251.567 77.7648 239.608 78.4974 228.148 78.2764C222.419 78.1659 216.82 77.8171 212.06 77.1552C207.291 76.492 203.395 75.5183 201.047 74.1749L201.047 74.1745C199.369 73.2217 197.401 71.104 195.37 68.1856C193.345 65.2754 191.276 61.5964 189.389 57.5547C185.615 49.4673 182.586 39.9584 182.091 32.2854ZM182.091 32.2854L181.841 32.3006M182.091 32.2854C182.091 32.2851 182.091 32.2848 182.091 32.2845L181.841 32.3006M181.841 32.3006C182.837 47.7322 194.009 70.4648 200.923 74.3919C210.492 79.8676 244.784 79.0932 258.391 76.9361C259.666 76.7331 260.919 76.536 262.151 76.3422C274.005 74.4769 283.891 72.9212 292.96 69.4139C300.745 66.4036 301.663 60.8121 304.626 42.7677C304.821 41.5826 305.024 40.3438 305.239 39.0485C305.958 34.8449 306.29 31.1391 306.4 27.9864C306.843 15.3203 303.026 10.3423 299.984 8.95957C295.394 6.80247 273.159 4.8666 244.95 5.64095C216.687 6.41529 190.193 9.95516 185.547 11.891C183.335 12.776 182.173 13.9375 181.675 16.5371C181.067 19.4133 181.343 24.1146 181.841 32.3006ZM29.3862 69.1812L29.3851 69.1807C27.3362 68.3885 25.7882 67.4217 24.5568 66.1011C23.3244 64.7793 22.3956 63.0886 21.6077 60.8277C20.2459 56.9198 19.3216 51.3644 17.9586 43.173C17.7392 41.854 17.5083 40.4667 17.2625 39.007L17.2624 39.0063C16.5453 34.8142 16.2146 31.1751 16.1043 27.9782C15.7183 15.3469 19.4721 10.559 22.3772 9.18563C23.4879 8.66389 25.7007 8.14231 28.8686 7.66938C32.0264 7.19794 36.1054 6.77851 40.9271 6.45039C50.5699 5.79418 63.1726 5.50387 77.2975 5.89085C91.4218 6.27782 105.09 7.34201 115.814 8.55808C121.176 9.16613 125.799 9.81194 129.375 10.4297C132.96 11.0491 135.465 11.6364 136.61 12.1211C137.698 12.5835 138.503 13.0903 139.098 13.7763C139.691 14.4605 140.091 15.3427 140.334 16.5851L140.335 16.5888C140.633 17.9972 140.717 19.8812 140.661 22.443C140.606 25.0018 140.413 28.2179 140.164 32.2844C139.669 39.9299 136.64 49.4254 132.865 57.5132C130.979 61.555 128.91 65.2375 126.884 68.1548C124.854 71.0798 122.885 73.2082 121.207 74.175C118.86 75.5183 114.967 76.4886 110.202 77.1474C105.447 77.805 99.8536 78.1486 94.1279 78.2556C82.6748 78.4698 70.7152 77.7372 63.9023 76.6891C62.8559 76.5268 61.8249 76.3682 60.8086 76.2118C48.6522 74.3412 38.5956 72.7937 29.3862 69.1812Z" stroke="#141414" stroke-width="0.5"/>
</svg>
