<svg width="204" height="201" fill="none" xmlns="http://www.w3.org/2000/svg"><path d="M103.488 128.78v14.589h2.463v8.21h-2.685v-5.873H91.488v5.873h-2.653v-8.21h1.358a20.574 20.574 0 002.4-4.389 25.165 25.165 0 001.453-4.989c.337-1.748.515-3.484.537-5.211h8.905zm-6.442 2.179a26.503 26.503 0 01-.664 4.453 29.22 29.22 0 01-1.389 4.357c-.547 1.39-1.19 2.59-1.926 3.6h7.736v-12.41h-3.757zm24.316 14.747h-2.81v-14.621h-4.989c-.211 2.674-.474 4.958-.79 6.853-.316 1.873-.716 3.4-1.2 4.579-.484 1.179-1.063 2.042-1.737 2.589-.673.547-1.463.821-2.368.821-.274 0-.547-.021-.821-.063a1.741 1.741 0 01-.632-.158v-2.084c.127.042.264.074.411.095.147.021.295.031.442.031.463 0 .884-.189 1.263-.568.379-.379.716-.958 1.011-1.737.315-.779.6-1.758.852-2.937.253-1.2.474-2.61.663-4.231.19-1.621.358-3.453.506-5.495h10.199v16.926zm5.625 0h-3.221l4.832-7.105a7.388 7.388 0 01-1.895-.789 4.359 4.359 0 01-1.484-1.548c-.379-.673-.569-1.505-.569-2.494 0-1.621.548-2.853 1.642-3.695 1.095-.863 2.548-1.295 4.358-1.295h7.579v16.926h-2.779v-6.726h-4.105l-4.358 6.726zm.347-11.905c0 .969.358 1.695 1.074 2.179.737.463 1.758.695 3.063.695h3.979v-5.59h-4.516c-1.284 0-2.21.253-2.779.758-.547.506-.821 1.158-.821 1.958zm27.845-10.642c1.873 0 3.442.179 4.705.537 1.284.358 2.242.948 2.873 1.769.653.821.979 1.915.979 3.284 0 .884-.168 1.673-.505 2.368-.316.674-.8 1.242-1.453 1.705-.631.442-1.41.748-2.336.916v.158c.947.147 1.8.421 2.557.821.779.4 1.39.968 1.832 1.705.442.737.663 1.695.663 2.874 0 1.368-.316 2.536-.947 3.505-.632.947-1.537 1.673-2.716 2.179-1.158.484-2.547.726-4.168.726h-7.926v-22.547h6.442zm.568 9.6c1.937 0 3.263-.305 3.979-.916.716-.631 1.073-1.558 1.073-2.779 0-1.242-.442-2.126-1.326-2.652-.863-.547-2.252-.821-4.168-.821h-3.726v7.168h4.168zm-4.168 2.368v8.179h4.547c2 0 3.389-.389 4.168-1.168.779-.779 1.169-1.8 1.169-3.063 0-.8-.179-1.495-.537-2.085-.337-.589-.916-1.042-1.737-1.357-.8-.337-1.895-.506-3.284-.506h-4.326zm22.938-6.631c2.063 0 3.589.453 4.578 1.358.99.905 1.485 2.347 1.485 4.326v11.526h-2.021l-.537-2.4h-.127a9.609 9.609 0 01-1.515 1.547c-.506.4-1.095.695-1.769.885-.652.189-1.452.284-2.4.284-1.01 0-1.926-.179-2.747-.537a4.233 4.233 0 01-1.895-1.642c-.463-.758-.694-1.705-.694-2.842 0-1.684.663-2.979 1.989-3.884 1.326-.926 3.368-1.432 6.126-1.516l2.874-.095v-1.01c0-1.411-.305-2.39-.916-2.937-.61-.547-1.474-.821-2.589-.821-.884 0-1.727.137-2.527.411-.8.252-1.547.547-2.242.884l-.852-2.084c.737-.4 1.61-.737 2.621-1.011a11.208 11.208 0 013.158-.442zm.821 9.031c-2.106.085-3.569.421-4.39 1.011-.8.589-1.2 1.421-1.2 2.494 0 .948.285 1.642.853 2.085.589.442 1.337.663 2.242.663 1.431 0 2.621-.39 3.568-1.169.948-.8 1.421-2.021 1.421-3.663v-1.515l-2.494.094zm16.469 8.495c-1.495 0-2.832-.306-4.01-.916-1.158-.611-2.074-1.558-2.748-2.842-.652-1.284-.979-2.926-.979-4.926 0-2.084.348-3.779 1.042-5.084.695-1.305 1.632-2.263 2.811-2.874 1.2-.61 2.558-.916 4.073-.916.863 0 1.695.095 2.495.285.8.168 1.453.379 1.958.631l-.853 2.305a16.405 16.405 0 00-1.768-.536 7.806 7.806 0 00-1.895-.253c-1.137 0-2.073.242-2.81.726-.737.484-1.284 1.2-1.642 2.148-.358.947-.537 2.126-.537 3.536 0 1.348.179 2.495.537 3.442.358.948.894 1.663 1.61 2.148.716.484 1.611.726 2.684.726.927 0 1.737-.095 2.432-.284.716-.19 1.368-.421 1.958-.695v2.463a7.44 7.44 0 01-1.895.663c-.674.169-1.495.253-2.463.253zM40.228 97.807c0 3.353-.424 6.404-1.273 9.151-.848 2.706-2.12 5.05-3.817 7.029-1.657 1.98-3.737 3.495-6.242 4.545-2.464 1.05-5.333 1.576-8.605 1.576-3.393 0-6.343-.526-8.847-1.576-2.505-1.091-4.586-2.606-6.242-4.545-1.656-1.979-2.889-4.343-3.697-7.09C.697 104.15.293 101.1.293 97.747c0-4.444.728-8.323 2.182-11.635 1.454-3.313 3.656-5.898 6.605-7.757 2.99-1.858 6.747-2.787 11.272-2.787 4.322 0 7.958.929 10.907 2.787 2.95 1.818 5.171 4.404 6.666 7.757 1.535 3.313 2.303 7.211 2.303 11.695zm-34.178 0c0 3.636.505 6.767 1.515 9.393 1.01 2.626 2.566 4.646 4.666 6.06 2.142 1.414 4.828 2.121 8.06 2.121 3.272 0 5.939-.707 7.999-2.121 2.1-1.414 3.656-3.434 4.666-6.06 1.01-2.626 1.515-5.757 1.515-9.393 0-5.454-1.131-9.716-3.393-12.786-2.263-3.11-5.838-4.666-10.726-4.666-3.273 0-5.98.707-8.12 2.12-2.101 1.374-3.657 3.374-4.667 6-1.01 2.586-1.515 5.696-1.515 9.332zM75.027 87.02v32.482h-5.333V91.566H52.908v27.936h-5.333V87.021h27.452zm31.27 4.485H95.692v27.997H90.42V91.505H79.937v-4.484h26.36v4.484zm9.913 15.332c0 .363-.02.888-.061 1.575 0 .646-.02 1.353-.06 2.121-.04.727-.081 1.434-.121 2.121a46.892 46.892 0 01-.121 1.576l17.391-27.21h6.545v32.482h-4.969V97.807c.04-1.05.081-2.08.121-3.09.04-1.05.081-1.838.121-2.364l-17.27 27.149h-6.606V87.021h5.03v19.816zm51.605-19.817h5.817l-13.877 15.635 15.028 16.847h-6.181l-14.665-16.483v16.483h-5.332V87.021h5.332v15.755l13.878-15.755zm23.651-.545c3.959 0 6.888.869 8.787 2.606 1.899 1.737 2.848 4.505 2.848 8.302v22.119h-3.878l-1.031-4.606h-.242c-.929 1.172-1.899 2.161-2.909 2.969-.969.768-2.1 1.334-3.393 1.697-1.253.364-2.788.546-4.606.546-1.939 0-3.696-.344-5.272-1.031a8.111 8.111 0 01-3.636-3.151c-.888-1.454-1.333-3.272-1.333-5.454 0-3.231 1.273-5.716 3.818-7.453 2.545-1.778 6.464-2.747 11.756-2.909l5.514-.182V97.99c0-2.707-.585-4.585-1.757-5.636-1.171-1.05-2.828-1.575-4.969-1.575a14.85 14.85 0 00-4.848.788 31.79 31.79 0 00-4.302 1.696l-1.637-4c1.414-.767 3.091-1.413 5.03-1.938a21.53 21.53 0 016.06-.849zm1.576 17.332c-4.04.161-6.848.808-8.424 1.939-1.535 1.131-2.302 2.727-2.302 4.787 0 1.818.545 3.151 1.636 4 1.131.848 2.565 1.272 4.302 1.272 2.747 0 5.03-.747 6.848-2.242 1.818-1.535 2.727-3.878 2.727-7.029v-2.909l-4.787.182z" fill="#000"/></svg>