<svg width="204" height="201" fill="none" xmlns="http://www.w3.org/2000/svg"><path d="M40.228 97.807c0 3.353-.424 6.404-1.273 9.151-.848 2.706-2.12 5.05-3.817 7.029-1.657 1.98-3.737 3.495-6.242 4.545-2.464 1.05-5.333 1.576-8.605 1.576-3.393 0-6.343-.526-8.847-1.576-2.505-1.091-4.586-2.606-6.242-4.545-1.656-1.979-2.889-4.343-3.697-7.09C.697 104.15.293 101.1.293 97.747c0-4.444.728-8.323 2.182-11.635 1.454-3.313 3.656-5.898 6.605-7.757 2.99-1.858 6.747-2.787 11.272-2.787 4.322 0 7.958.929 10.907 2.787 2.95 1.818 5.171 4.404 6.666 7.757 1.535 3.313 2.303 7.211 2.303 11.695zm-34.178 0c0 3.636.505 6.767 1.515 9.393 1.01 2.626 2.566 4.646 4.666 6.06 2.142 1.414 4.828 2.121 8.06 2.121 3.272 0 5.939-.707 7.999-2.121 2.1-1.414 3.656-3.434 4.666-6.06 1.01-2.626 1.515-5.757 1.515-9.393 0-5.454-1.131-9.716-3.393-12.786-2.263-3.11-5.838-4.666-10.726-4.666-3.273 0-5.98.707-8.12 2.12-2.101 1.374-3.657 3.374-4.667 6-1.01 2.586-1.515 5.696-1.515 9.332zM75.027 87.02v32.482h-5.333V91.566H52.908v27.936h-5.333V87.021h27.452zm31.27 4.485H95.692v27.997H90.42V91.505H79.937v-4.484h26.36v4.484zm9.913 15.332c0 .363-.02.888-.061 1.575 0 .646-.02 1.353-.06 2.121-.04.727-.081 1.434-.121 2.121a46.892 46.892 0 01-.121 1.576l17.391-27.21h6.545v32.482h-4.969V97.807c.04-1.05.081-2.08.121-3.09.04-1.05.081-1.838.121-2.364l-17.27 27.149h-6.606V87.021h5.03v19.816zm51.605-19.817h5.817l-13.877 15.635 15.028 16.847h-6.181l-14.665-16.483v16.483h-5.332V87.021h5.332v15.755l13.878-15.755zm23.651-.545c3.959 0 6.888.869 8.787 2.606 1.899 1.737 2.848 4.505 2.848 8.302v22.119h-3.878l-1.031-4.606h-.242c-.929 1.172-1.899 2.161-2.909 2.969-.969.768-2.1 1.334-3.393 1.697-1.253.364-2.788.546-4.606.546-1.939 0-3.696-.344-5.272-1.031a8.111 8.111 0 01-3.636-3.151c-.888-1.454-1.333-3.272-1.333-5.454 0-3.231 1.273-5.716 3.818-7.453 2.545-1.778 6.464-2.747 11.756-2.909l5.514-.182V97.99c0-2.707-.585-4.585-1.757-5.636-1.171-1.05-2.828-1.575-4.969-1.575a14.85 14.85 0 00-4.848.788 31.79 31.79 0 00-4.302 1.696l-1.637-4c1.414-.767 3.091-1.413 5.03-1.938a21.53 21.53 0 016.06-.849zm1.576 17.332c-4.04.161-6.848.808-8.424 1.939-1.535 1.131-2.302 2.727-2.302 4.787 0 1.818.545 3.151 1.636 4 1.131.848 2.565 1.272 4.302 1.272 2.747 0 5.03-.747 6.848-2.242 1.818-1.535 2.727-3.878 2.727-7.029v-2.909l-4.787.182zm-89.554 24.973v14.589h2.463v8.21h-2.684v-5.873H91.488v5.873h-2.652v-8.21h1.357a20.574 20.574 0 002.4-4.389 25.165 25.165 0 001.453-4.989c.337-1.748.516-3.484.537-5.211h8.905zm-6.442 2.179a26.512 26.512 0 01-.663 4.453 29.232 29.232 0 01-1.39 4.357c-.547 1.39-1.19 2.59-1.926 3.6h7.737v-12.41h-3.758zm24.316 14.747h-2.81v-14.621h-4.989c-.211 2.674-.474 4.958-.79 6.853-.316 1.873-.715 3.4-1.2 4.579-.484 1.179-1.063 2.042-1.736 2.589-.674.547-1.464.821-2.369.821-.273 0-.547-.021-.821-.063a1.736 1.736 0 01-.631-.158v-2.084c.126.042.263.074.41.095.147.021.295.031.442.031.463 0 .884-.189 1.263-.568.379-.379.716-.958 1.011-1.737.316-.779.6-1.758.852-2.937.253-1.2.474-2.61.664-4.231.189-1.621.357-3.453.505-5.495h10.199v16.926zm5.625 0h-3.221l4.832-7.105a7.403 7.403 0 01-1.895-.789 4.367 4.367 0 01-1.484-1.548c-.379-.673-.569-1.505-.569-2.494 0-1.621.548-2.853 1.642-3.695 1.095-.863 2.548-1.295 4.358-1.295h7.579v16.926h-2.779v-6.726h-4.105l-4.358 6.726zm.348-11.905c0 .969.357 1.695 1.073 2.179.737.463 1.758.695 3.063.695h3.979v-5.59h-4.516c-1.284 0-2.21.253-2.778.758-.548.506-.821 1.158-.821 1.958zm27.844-10.642c1.873 0 3.442.179 4.705.537 1.284.358 2.242.948 2.873 1.769.653.821.979 1.915.979 3.284 0 .884-.168 1.673-.505 2.368-.316.674-.8 1.242-1.452 1.705-.632.442-1.411.748-2.337.916v.158c.947.147 1.8.421 2.558.821.778.4 1.389.968 1.831 1.705.442.737.663 1.695.663 2.874 0 1.368-.316 2.536-.947 3.505-.632.947-1.537 1.673-2.716 2.179-1.158.484-2.547.726-4.168.726h-7.926v-22.547h6.442zm.568 9.6c1.937 0 3.263-.305 3.979-.916.716-.631 1.074-1.558 1.074-2.779 0-1.242-.442-2.126-1.327-2.652-.863-.547-2.252-.821-4.168-.821h-3.726v7.168h4.168zm-4.168 2.368v8.179h4.547c2 0 3.389-.389 4.168-1.168.779-.779 1.169-1.8 1.169-3.063 0-.8-.179-1.495-.537-2.085-.337-.589-.916-1.042-1.737-1.357-.8-.337-1.895-.506-3.284-.506h-4.326zm22.938-6.631c2.063 0 3.589.453 4.578 1.358.99.905 1.485 2.347 1.485 4.326v11.526h-2.021l-.537-2.4h-.126a9.655 9.655 0 01-1.516 1.547c-.505.4-1.095.695-1.769.885-.652.189-1.452.284-2.399.284-1.011 0-1.927-.179-2.748-.537a4.225 4.225 0 01-1.894-1.642c-.464-.758-.695-1.705-.695-2.842 0-1.684.663-2.979 1.989-3.884 1.327-.926 3.369-1.432 6.126-1.516l2.874-.095v-1.01c0-1.411-.305-2.39-.916-2.937-.61-.547-1.473-.821-2.589-.821-.884 0-1.726.137-2.526.411-.8.252-1.548.547-2.242.884l-.853-2.084c.737-.4 1.61-.737 2.621-1.011a11.208 11.208 0 013.158-.442zm.821 9.031c-2.105.085-3.569.421-4.39 1.011-.8.589-1.2 1.421-1.2 2.494 0 .948.285 1.642.853 2.085.59.442 1.337.663 2.242.663 1.432 0 2.621-.39 3.568-1.169.948-.8 1.421-2.021 1.421-3.663v-1.515l-2.494.094zm16.469 8.495c-1.495 0-2.831-.306-4.01-.916-1.158-.611-2.074-1.558-2.748-2.842-.652-1.284-.979-2.926-.979-4.926 0-2.084.348-3.779 1.043-5.084.694-1.305 1.631-2.263 2.81-2.874 1.2-.61 2.558-.916 4.073-.916.864 0 1.695.095 2.495.285.8.168 1.453.379 1.958.631l-.853 2.305a16.405 16.405 0 00-1.768-.536 7.806 7.806 0 00-1.895-.253c-1.136 0-2.073.242-2.81.726-.737.484-1.284 1.2-1.642 2.148-.358.947-.537 2.126-.537 3.536 0 1.348.179 2.495.537 3.442.358.948.895 1.663 1.61 2.148.716.484 1.611.726 2.684.726.927 0 1.737-.095 2.432-.284.716-.19 1.368-.421 1.958-.695v2.463a7.44 7.44 0 01-1.895.663c-.674.169-1.495.253-2.463.253z" fill="#000"/><g clip-path="url(#clip0_1210_856)"><path d="M59.237 156.966c-3.79 0-6.858-1.068-8.957-3.213-5.16-5.259-4.047-16.61 3.031-31.144 13.867-28.349 46.36-61.251 72.466-73.338 11.912-5.517 21.006-5.971 25.598-1.28 5.153 5.258 4.046 16.61-3.031 31.136-13.845 28.364-46.338 61.259-72.436 73.346-6.502 2.993-12.132 4.493-16.671 4.493zm66.805-107.157c-25.991 12.034-58.348 44.807-72.155 73.057-6.98 14.3-8.131 25.401-3.16 30.478 4.403 4.501 13.261 4.001 24.93-1.409 25.985-12.034 58.35-44.808 72.156-73.058 6.979-14.299 8.131-25.4 3.16-30.477-4.41-4.502-13.261-4.001-24.931 1.41z" fill="url(#paint0_linear_1210_856)"/><path d="M56.494 157.731c-4.464 0-7.934-1.28-10.185-3.849-5.251-5.994-3.319-18.369 5.305-33.948 16.262-29.387 51.528-61.933 78.543-72.542 11.882-4.66 20.816-4.494 25.166.47 5.259 5.993 3.327 18.368-5.305 33.948-16.261 29.386-51.528 61.933-78.55 72.542-5.737 2.258-10.791 3.379-14.974 3.379zm88.66-113.143c-4.1 0-9.094 1.114-14.77 3.35-26.938 10.57-62.046 42.995-78.255 72.284-8.495 15.345-10.45 27.477-5.365 33.274 4.168 4.766 12.882 4.872 24.506.31 26.94-10.571 62.04-42.996 78.248-72.284 8.495-15.345 10.458-27.477 5.373-33.274-2.137-2.44-5.456-3.66-9.745-3.66h.008z" fill="url(#paint1_linear_1210_856)"/><path d="M53.985 158.315c-5.266 0-9.252-1.516-11.654-4.622-5.305-6.82-2.478-20.233 7.797-36.813 18.763-30.311 56.705-62.183 84.576-71.11 11.768-3.789 20.505-2.963 24.605 2.273 5.304 6.82 2.478 20.233-7.805 36.813-18.763 30.311-56.697 62.183-84.568 71.11a43.132 43.132 0 01-12.95 2.349zm93.677-114.303a42.86 42.86 0 00-12.791 2.311c-27.75 8.896-65.548 40.685-84.25 70.86-10.14 16.368-12.996 29.553-7.836 36.146 3.933 5.039 12.443 5.782 23.961 2.091 27.765-8.873 65.563-40.7 84.265-70.86 10.139-16.367 12.996-29.553 7.836-36.145-2.289-2.925-6.116-4.403-11.185-4.403z" fill="url(#paint2_linear_1210_856)"/><path d="M51.629 158.762c-6.184 0-10.692-1.887-13.276-5.615-5.305-7.722-1.516-22.203 10.57-39.723 21.332-31.008 61.903-61.956 90.449-68.957 11.76-2.895 20.028-1.455 23.908 4.16 5.304 7.721 1.515 22.203-10.564 39.723-21.331 31.008-61.91 61.955-90.448 68.957a45.227 45.227 0 01-10.64 1.455zm98.397-115.197c-3.551.056-7.082.54-10.518 1.44-28.424 6.994-68.844 37.835-90.107 68.745-11.905 17.308-15.754 31.546-10.564 39.056 3.736 5.395 11.784 6.752 23.287 3.918 28.424-6.995 68.844-37.836 90.107-68.746 11.905-17.307 15.762-31.546 10.609-39.056-2.508-3.554-6.85-5.357-12.814-5.357z" fill="url(#paint3_linear_1210_856)"/><path d="M49.787 159.005c-7.403 0-12.654-2.274-15.375-6.82-5.304-8.737-.326-24.249 13.602-42.633 23.953-31.561 67.079-61.22 96.124-66.131 11.511-1.947 19.498.167 23.09 6.062 5.304 8.737.325 24.25-13.64 42.633-23.923 31.614-67.04 61.251-96.087 66.184a46.618 46.618 0 01-7.714.705zM151.86 43.322a46.298 46.298 0 00-7.623.698c-28.925 4.887-71.875 34.456-95.753 65.926-13.58 17.891-18.649 33.577-13.572 41.973 3.456 5.707 11.23 7.722 22.491 5.82 28.924-4.887 71.875-34.456 95.753-65.926 13.579-17.891 18.649-33.577 13.571-41.974-2.614-4.311-7.691-6.517-14.867-6.517z" fill="url(#paint4_linear_1210_856)"/><path d="M48.484 159.118c-8.934 0-15.095-2.826-17.944-8.282-5.077-9.715 1.25-26.727 16.929-45.52 26.613-31.902 72.155-59.94 101.542-62.501 11.207-.978 18.861 1.819 22.134 8.093 5.07 9.715-1.258 26.727-16.928 45.52-26.614 31.902-72.156 59.94-101.543 62.501a51.41 51.41 0 01-4.19.189zm100.519-115.72c-29.235 2.554-74.595 30.5-101.125 62.297-15.512 18.604-21.817 35.373-16.86 44.868 3.16 6.062 10.608 8.737 21.566 7.782 29.235-2.553 74.603-30.5 101.132-62.296 15.512-18.604 21.817-35.373 16.853-44.868-3.152-6.063-10.608-8.737-21.566-7.783z" fill="url(#paint5_linear_1210_856)"/><path d="M47.802 159.149c-10.859 0-18.149-3.516-21.074-10.162-4.812-10.935 2.865-29 20.544-48.331 29.25-32.016 77.081-58.061 106.543-58.061 10.859 0 18.141 3.516 21.066 10.162 4.82 10.934-2.864 29-20.543 48.331-29.243 32.016-77.058 58.061-106.536 58.061zM153.815 43.186c-29.318 0-76.93 25.954-106.089 57.894-17.512 19.149-25.158 36.98-20.46 47.695 2.827 6.41 9.927 9.805 20.536 9.805 29.341 0 76.952-25.954 106.142-57.871 17.52-19.15 25.158-36.98 20.46-47.695-2.827-6.41-9.927-9.805-20.536-9.805l-.053-.023z" fill="url(#paint6_linear_1210_856)"/><path d="M47.832 159.149c-1.697 0-3.339-.076-4.925-.228-10.473-1-17.346-5.259-19.884-12.314-4.403-12.276 4.736-31.341 24.445-51.013 31.979-31.902 81.886-55.575 111.265-52.772 10.472 1 17.345 5.26 19.876 12.314 4.403 12.276-4.728 31.342-24.445 51.014-30.243 30.182-76.551 52.999-106.332 52.999zm105.983-115.97c-29.637 0-75.778 22.733-105.9 52.832-19.542 19.505-28.636 38.343-24.309 50.399 2.455 6.82 9.154 10.95 19.384 11.928 29.22 2.788 78.923-20.809 110.795-52.605 19.543-19.505 28.628-38.344 24.302-50.4-2.448-6.82-9.154-10.957-19.377-11.927a52.148 52.148 0 00-4.895-.227z" fill="url(#paint7_linear_1210_856)"/><path d="M48.681 159.194a53.876 53.876 0 01-10.609-.977c-10.063-2.016-16.482-7.063-18.573-14.603-3.789-13.716 6.903-33.706 28.636-53.484 34.63-31.516 86.425-52.423 115.448-46.603 10.063 2.016 16.481 7.063 18.573 14.602 3.789 13.716-6.911 33.706-28.637 53.484-30.735 27.962-74.974 47.573-104.838 47.581zM152.913 43.133c-29.697 0-73.762 19.558-104.391 47.43-21.566 19.626-32.206 39.404-28.462 52.9 2.023 7.305 8.29 12.207 18.118 14.185a54.34 54.34 0 0010.54.963c29.706 0 73.763-19.559 104.4-47.43 21.559-19.626 32.205-39.404 28.462-52.9-2.023-7.305-8.29-12.208-18.119-14.178a53.741 53.741 0 00-10.548-.97z" fill="url(#paint8_linear_1210_856)"/><path d="M50.5 159.361a56.868 56.868 0 01-17.202-2.364c-9.639-3.069-15.565-8.965-17.133-17.058-2.955-15.246 9.411-36.055 33.092-55.659 37.245-30.856 90.675-48.588 119.085-39.533 9.638 3.07 15.557 8.965 17.133 17.058 2.955 15.246-9.412 36.055-33.092 55.658-30.66 25.393-72.27 41.898-101.883 41.898zM151.095 42.959c-29.455 0-70.906 16.459-101.467 41.768-23.49 19.468-35.805 40.072-32.887 55.106 1.515 7.858 7.312 13.602 16.731 16.603 28.25 9.002 81.424-8.684 118.539-39.405 23.492-19.467 35.798-40.07 32.888-55.105-1.516-7.858-7.313-13.602-16.732-16.603a56.57 56.57 0 00-17.072-2.364z" fill="url(#paint9_linear_1210_856)"/><path d="M53.402 159.77c-9.487 0-17.952-1.462-24.75-4.547-9.206-4.182-14.579-11.01-15.534-19.747-1.84-16.823 12.277-38.298 37.768-57.432 39.806-29.88 94.593-44.02 122.101-31.524 9.207 4.183 14.579 11.01 15.534 19.748 1.842 16.823-12.283 38.298-37.767 57.432-29.971 22.498-68.428 36.07-97.352 36.07zM148.2 42.55c-28.796 0-67.086 13.534-96.996 35.964-25.325 19.012-39.358 40.283-37.54 56.901.925 8.518 6.184 15.156 15.156 19.27 27.348 12.42 81.84-1.689 121.502-31.455 25.324-19.012 39.359-40.283 37.54-56.901-.932-8.518-6.184-15.156-15.156-19.27-6.706-3.062-15.102-4.51-24.506-4.51z" fill="url(#paint10_linear_1210_856)"/><path d="M57.44 160.543c-13.192 0-24.756-2.47-33.258-7.684-8.783-5.38-13.534-13.246-13.746-22.733-.417-18.437 15.52-40.344 42.595-58.675 42.26-28.583 98.071-38.707 124.404-22.566 8.775 5.38 13.534 13.245 13.746 22.733.409 18.399-15.519 40.329-42.625 58.659-28.591 19.369-63.426 30.266-91.115 30.266zm86.736-118.774c-27.545 0-62.259 10.867-90.79 30.167-26.938 18.225-42.776 39.965-42.367 58.159.213 9.291 4.865 16.99 13.466 22.264 26.159 16.034 81.681 5.918 123.768-22.552 26.931-18.186 42.769-39.965 42.36-58.159-.205-9.29-4.865-16.99-13.466-22.263-8.419-5.138-19.892-7.616-32.971-7.616z" fill="url(#paint11_linear_1210_856)"/><path d="M62.556 161.816c-17.429 0-32.584-3.887-42.625-11.943-8.336-6.706-12.382-15.754-11.685-26.158 1.334-19.876 19.111-42.011 47.55-59.198 44.596-26.954 101.05-32.63 125.913-12.647 8.335 6.707 12.382 15.754 11.685 26.159-1.334 19.876-19.119 41.996-47.551 59.197-26.613 16.08-57.462 24.59-83.287 24.59zm76.535-121.32c-25.711 0-56.447 8.487-82.984 24.522-28.28 17.095-45.951 39.048-47.27 58.735-.682 10.207 3.281 19.081 11.473 25.666 24.643 19.861 80.824 14.14 125.23-12.723 28.28-17.096 45.944-39.049 47.263-58.736.689-10.207-3.282-19.08-11.466-25.665-9.919-7.95-24.946-11.799-42.253-11.799h.007z" fill="url(#paint12_linear_1210_856)"/><path d="M68.52 163.726c-22.158 0-41.36-5.797-52.56-17.482-7.88-8.215-11.079-18.611-9.252-30.061 3.38-21.218 22.968-43.194 52.415-58.91C105.908 32.304 162.681 31.51 185.672 55.5c7.873 8.214 11.079 18.61 9.252 30.06-3.379 21.181-22.975 43.194-52.415 58.91-23.999 12.815-50.635 19.256-73.99 19.256zm64.615-125.14c-23.248 0-49.8 6.426-73.731 19.202-29.289 15.626-48.771 37.488-52.12 58.486-1.796 11.26 1.356 21.483 9.093 29.553 22.832 23.809 79.286 22.961 125.852-1.887 29.288-15.625 48.762-37.487 52.112-58.485 1.796-11.26-1.349-21.483-9.093-29.553-11.087-11.572-30.13-17.316-52.113-17.316z" fill="url(#paint13_linear_1210_856)"/><path d="M74.96 166.4c-27.143 0-50.77-8.373-62.637-24.461-7.358-9.949-9.54-21.892-6.312-34.539 5.66-22.173 26.992-43.731 57.068-57.667 48.785-22.597 105.414-18.08 126.238 10.071 7.358 9.95 9.54 21.892 6.312 34.54-5.668 22.172-27 43.731-57.068 57.666-20.9 9.692-43.254 14.39-63.6 14.39zm51.75-130.489c-20.27 0-42.541 4.691-63.388 14.353-29.91 13.852-51.127 35.267-56.742 57.28-3.19 12.465-1.038 24.249 6.214 34.039 20.664 27.94 76.975 32.38 125.525 9.851 29.895-13.814 51.112-35.198 56.743-57.242 3.182-12.465 1.038-24.249-6.214-34.04-11.791-15.905-35.199-24.24-62.138-24.24z" fill="url(#paint14_linear_1210_856)"/><path d="M81.394 169.917c-32.205 0-60.35-11.731-72.322-32.986-6.737-11.958-7.676-25.651-2.713-39.602 8.1-22.77 31.024-43.488 61.312-55.355 50.574-19.854 106.604-9.601 124.889 22.862 6.744 11.957 7.684 25.65 2.72 39.601-8.108 22.787-31.023 43.489-61.311 55.379a144.99 144.99 0 01-52.575 10.101zm38.882-137.514a144.527 144.527 0 00-52.393 10.094c-30.13 11.828-52.923 32.402-60.97 55.03-4.911 13.783-3.979 27.279 2.674 39.116 18.15 32.22 73.853 42.359 124.17 22.604 30.129-11.829 52.923-32.402 60.978-55.03 4.903-13.784 3.978-27.28-2.675-39.116-11.874-21.066-39.806-32.698-71.784-32.698z" fill="url(#paint15_linear_1210_856)"/><path d="M87.358 174.327c-37.131 0-69.784-16.042-81.082-43.118-5.964-14.291-5.38-29.939 1.69-45.246 10.609-22.916 34.857-42.36 64.956-52.007 52.12-16.67 107.051-.303 122.442 36.578 5.964 14.292 5.373 29.94-1.698 45.247-10.608 22.915-34.857 42.36-64.949 52.006a135.943 135.943 0 01-41.36 6.54zM114.304 28a135.343 135.343 0 00-41.2 6.517c-29.94 9.601-54.09 28.924-64.608 51.688-6.994 15.156-7.578 30.645-1.682 44.777 11.207 26.856 43.595 42.761 80.521 42.761a135.193 135.193 0 0041.201-6.516c29.939-9.602 54.09-28.925 64.6-51.688 7.002-15.156 7.578-30.645 1.682-44.777C183.611 43.906 151.231 28 114.304 28z" fill="url(#paint16_linear_1210_856)"/><path d="M92.473 179.654c-41.943 0-78.68-21.422-88.486-54.901-4.963-16.974-2.53-34.736 7.048-51.377 13.147-22.855 37.889-40.162 67.82-47.573 53.386-13.163 106.68 9.805 118.79 51.188 4.971 16.974 2.531 34.736-7.04 51.377-13.155 22.854-37.889 40.162-67.821 47.573a126.709 126.709 0 01-30.311 3.713zm16.671-156.981a126.052 126.052 0 00-30.182 3.698C49.166 33.714 24.584 50.953 11.52 73.664c-9.495 16.504-11.913 34.1-6.987 50.922 9.722 33.221 46.224 54.477 87.902 54.485a125.995 125.995 0 0030.205-3.729c29.796-7.343 54.386-24.582 67.442-47.293 9.495-16.504 11.912-34.1 6.987-50.922-9.707-33.19-46.217-54.454-87.895-54.454h-.03z" fill="url(#paint17_linear_1210_856)"/><path d="M96.504 185.875C50 185.875 9.71 157.913 2.26 117.547c-3.63-19.703 1.144-40.26 13.435-57.826 15.33-21.907 40.76-37.283 69.768-42.193 54.333-9.192 105.422 20.717 113.879 66.684 3.638 19.702-1.137 40.261-13.428 57.826-15.329 21.907-40.76 37.283-69.768 42.193a117.739 117.739 0 01-19.642 1.644zm8.639-169.423c-6.544.005-13.076.558-19.528 1.652-28.856 4.88-54.15 20.172-69.39 41.958C4.025 77.49-.71 97.875 2.89 117.44c7.38 40.071 47.429 67.851 93.646 67.851 6.542.007 13.075-.533 19.528-1.614 28.856-4.88 54.143-20.172 69.389-41.958 12.2-17.429 16.936-37.813 13.329-57.379-7.373-40.094-47.421-67.89-93.638-67.89z" fill="url(#paint18_linear_1210_856)"/><path d="M99.3 192.961c-50.884 0-93.964-35.767-98.101-83.356-4.426-50.566 36.676-95.6 91.6-100.405 26.605-2.327 52.453 5.016 72.746 20.68 20.294 15.663 32.714 37.782 34.858 62.274 2.145 24.491-6.206 48.422-23.491 67.389s-41.481 30.674-68.086 33.001c-3.191.28-6.381.417-9.525.417zm3.145-183.572c-3.182 0-6.38.142-9.593.425-54.613 4.774-95.48 49.528-91.07 99.753 4.138 47.293 46.945 82.84 97.519 82.84 3.137 0 6.299-.139 9.487-.416 26.461-2.312 50.506-13.966 67.7-32.812 17.194-18.846 25.499-42.617 23.369-66.942-2.129-24.325-14.397-46.3-34.638-61.865-17.754-13.716-39.752-20.983-62.774-20.983z" fill="url(#paint19_linear_1210_856)"/><path d="M100.816 200.872C45.68 200.872.79 156.012.79 100.845.79 45.679 45.65.819 100.816.819s100.027 44.86 100.027 100.026c0 55.167-44.884 100.027-100.027 100.027zm0-199.417c-54.818 0-99.413 44.596-99.413 99.413 0 54.818 44.596 99.42 99.413 99.42 54.818 0 99.42-44.595 99.42-99.42s-44.602-99.413-99.42-99.413z" fill="url(#paint20_linear_1210_856)"/></g><defs><linearGradient id="paint0_linear_1210_856" x1="47.075" y1="44.775" x2="152.002" y2="145.318" gradientUnits="userSpaceOnUse"><stop/><stop offset="1" stop-opacity="0"/></linearGradient><linearGradient id="paint1_linear_1210_856" x1="43.406" y1="44.014" x2="149.853" y2="151.499" gradientUnits="userSpaceOnUse"><stop/><stop offset="1" stop-opacity="0"/></linearGradient><linearGradient id="paint2_linear_1210_856" x1="39.711" y1="43.423" x2="147.058" y2="157.613" gradientUnits="userSpaceOnUse"><stop/><stop offset="1" stop-opacity="0"/></linearGradient><linearGradient id="paint3_linear_1210_856" x1="36.012" y1="43.011" x2="143.679" y2="163.567" gradientUnits="userSpaceOnUse"><stop/><stop offset="1" stop-opacity="0"/></linearGradient><linearGradient id="paint4_linear_1210_856" x1="32.336" y1="42.717" x2="139.753" y2="169.234" gradientUnits="userSpaceOnUse"><stop/><stop offset="1" stop-opacity="0"/></linearGradient><linearGradient id="paint5_linear_1210_856" x1="28.821" y1="42.624" x2="135.462" y2="174.479" gradientUnits="userSpaceOnUse"><stop/><stop offset="1" stop-opacity="0"/></linearGradient><linearGradient id="paint6_linear_1210_856" x1="25.319" y1="42.595" x2="130.873" y2="179.32" gradientUnits="userSpaceOnUse"><stop/><stop offset="1" stop-opacity="0"/></linearGradient><linearGradient id="paint7_linear_1210_856" x1="21.936" y1="42.597" x2="126.225" y2="183.76" gradientUnits="userSpaceOnUse"><stop/><stop offset="1" stop-opacity="0"/></linearGradient><linearGradient id="paint8_linear_1210_856" x1="18.748" y1="42.555" x2="121.857" y2="187.669" gradientUnits="userSpaceOnUse"><stop/><stop offset="1" stop-opacity="0"/></linearGradient><linearGradient id="paint9_linear_1210_856" x1="15.734" y1="42.381" x2="117.984" y2="191.115" gradientUnits="userSpaceOnUse"><stop/><stop offset="1" stop-opacity="0"/></linearGradient><linearGradient id="paint10_linear_1210_856" x1="12.958" y1="41.972" x2="114.963" y2="194.136" gradientUnits="userSpaceOnUse"><stop/><stop offset="1" stop-opacity="0"/></linearGradient><linearGradient id="paint11_linear_1210_856" x1="10.428" y1="41.202" x2="113.162" y2="196.808" gradientUnits="userSpaceOnUse"><stop/><stop offset="1" stop-opacity="0"/></linearGradient><linearGradient id="paint12_linear_1210_856" x1="8.169" y1="39.926" x2="112.945" y2="199.21" gradientUnits="userSpaceOnUse"><stop/><stop offset="1" stop-opacity="0"/></linearGradient><linearGradient id="paint13_linear_1210_856" x1="6.208" y1="38.014" x2="114.692" y2="201.299" gradientUnits="userSpaceOnUse"><stop/><stop offset="1" stop-opacity="0"/></linearGradient><linearGradient id="paint14_linear_1210_856" x1="4.56" y1="35.346" x2="118.696" y2="203.013" gradientUnits="userSpaceOnUse"><stop/><stop offset="1" stop-opacity="0"/></linearGradient><linearGradient id="paint15_linear_1210_856" x1="3.221" y1="31.851" x2="125.086" y2="204.143" gradientUnits="userSpaceOnUse"><stop/><stop offset="1" stop-opacity="0"/></linearGradient><linearGradient id="paint16_linear_1210_856" x1="2.196" y1="27.43" x2="133.944" y2="204.334" gradientUnits="userSpaceOnUse"><stop/><stop offset="1" stop-opacity="0"/></linearGradient><linearGradient id="paint17_linear_1210_856" x1="1.48" y1="22.091" x2="145.098" y2="203.185" gradientUnits="userSpaceOnUse"><stop/><stop offset="1" stop-opacity="0"/></linearGradient><linearGradient id="paint18_linear_1210_856" x1="1.075" y1="15.868" x2="158.211" y2="200.223" gradientUnits="userSpaceOnUse"><stop/><stop offset="1" stop-opacity="0"/></linearGradient><linearGradient id="paint19_linear_1210_856" x1=".872" y1="8.778" x2="172.714" y2="195.247" gradientUnits="userSpaceOnUse"><stop/><stop offset="1" stop-opacity="0"/></linearGradient><linearGradient id="paint20_linear_1210_856" x1=".79" y1=".819" x2="188.061" y2="188.09" gradientUnits="userSpaceOnUse"><stop/><stop offset="1" stop-opacity="0"/></linearGradient><clipPath id="clip0_1210_856"><path fill="#fff" transform="translate(.82 .872)" d="M0 0h200v200H0z"/></clipPath></defs></svg>