<svg width="309" height="105" fill="none" xmlns="http://www.w3.org/2000/svg"><g clip-path="url(#clip0_1211_1035)"><path d="M.5 86.11V.5h85.178v85.61H.5z" stroke="#000"/><path d="M309 103.905c-10.405 0-10.405-11.307-20.811-11.307-10.405 0-10.405 11.307-20.811 11.307-10.405 0-10.405-11.307-20.811-11.307-10.405 0-10.383 11.307-20.788 11.307-10.406 0-10.406-11.307-20.811-11.307-10.406 0-10.406 11.307-20.811 11.307-10.406 0-10.406-11.307-20.811-11.307-10.406 0-10.428 11.307-20.833 11.307-10.406 0-10.406-11.307-20.811-11.307M309 84.867c-10.405 0-10.405-11.307-20.811-11.307-10.405 0-10.405 11.307-20.811 11.307-10.405 0-10.405-11.307-20.811-11.307-10.405 0-10.383 11.307-20.788 11.307-10.406 0-10.406-11.307-20.811-11.307-10.406 0-10.406 11.307-20.811 11.307-10.406 0-10.406-11.307-20.811-11.307-10.406 0-10.428 11.307-20.833 11.307-10.406 0-10.406-11.307-20.811-11.307M309 65.829c-10.405 0-10.405-11.284-20.811-11.284-10.405 0-10.405 11.284-20.811 11.284-10.405 0-10.405-11.284-20.811-11.284-10.405 0-10.383 11.284-20.788 11.284-10.406 0-10.406-11.284-20.811-11.284-10.406 0-10.406 11.284-20.811 11.284-10.406 0-10.406-11.284-20.811-11.284-10.406 0-10.428 11.284-20.833 11.284-10.406 0-10.406-11.284-20.811-11.284" stroke="#000" stroke-miterlimit="10"/><g clip-path="url(#clip1_1211_1035)" fill="#000"><path d="M126 1v16.11l13.14-8.06L126 1zm26.71 0v16.11l13.15-8.06L152.71 1zm26.72 0v16.11l13.14-8.06L179.43 1zm26.71 0v16.11l13.15-8.06L206.14 1zm26.72 0v16.11L246 9.05 232.86 1z"/></g></g><defs><clipPath id="clip0_1211_1035"><path fill="#fff" d="M0 0h309v105H0z"/></clipPath><clipPath id="clip1_1211_1035"><path fill="#fff" transform="matrix(-1 0 0 1 246 1)" d="M0 0h120v16.11H0z"/></clipPath></defs></svg>