<svg width="288" height="143" fill="none" xmlns="http://www.w3.org/2000/svg"><g clip-path="url(#clip0_1218_1227)"><path d="M201.657 1.343H181m37.97 10.37H185m53.151 10.39H190m68.154 10.37H195m79.683 10.371H199m89 10.371h-85m85 10.39h-85m71.683 10.37H199m59.154 10.371H195m43.151 10.371H190m28.97 10.389H185m16.657 10.371H181" stroke="#000" stroke-miterlimit="10"/></g><g clip-path="url(#clip1_1218_1227)" stroke="#000" stroke-miterlimit="10"><path d="M65.993 141.732c36.036 0 65.249-29.213 65.249-65.25 0-36.035-29.213-65.248-65.25-65.248C29.957 11.234.744 40.446.744 76.483c0 36.036 29.213 65.249 65.25 65.249z"/><path d="M117.098 95.78c10.663-28.234-3.581-59.767-31.816-70.43-28.234-10.663-59.766 3.581-70.43 31.815-10.662 28.234 3.582 59.767 31.816 70.43 28.234 10.663 59.766-3.581 70.43-31.815z"/><path d="M107.165 92.029c8.592-22.749-2.885-48.155-25.634-56.747-22.748-8.591-48.155 2.886-56.746 25.634-8.591 22.749 2.885 48.155 25.634 56.747 22.749 8.591 48.155-2.886 56.746-25.634z"/><path d="M97.233 88.278c6.52-17.264-2.19-36.543-19.453-43.063-17.263-6.52-36.543 2.19-43.063 19.453-6.52 17.263 2.19 36.542 19.453 43.062 17.263 6.52 36.543-2.189 43.063-19.452z"/><path d="M87.314 84.532c4.451-11.786-1.494-24.948-13.28-29.399-11.785-4.45-24.947 1.495-29.398 13.28-4.451 11.786 1.495 24.948 13.28 29.399 11.785 4.451 24.947-1.495 29.398-13.28z"/></g><defs><clipPath id="clip0_1218_1227"><path fill="#fff" transform="matrix(0 1 -1 0 288 .41)" d="M0 0h116v107H0z"/></clipPath><clipPath id="clip1_1218_1227"><path fill="#fff" transform="translate(0 10.49)" d="M0 0h132v132H0z"/></clipPath></defs></svg>